<?xml version="1.0" encoding="UTF-8" standalone="no"?>
<svg
   xmlns:osb="http://www.openswatchbook.org/uri/2009/osb"
   xmlns:dc="http://purl.org/dc/elements/1.1/"
   xmlns:cc="http://creativecommons.org/ns#"
   xmlns:rdf="http://www.w3.org/1999/02/22-rdf-syntax-ns#"
   xmlns:svg="http://www.w3.org/2000/svg"
   xmlns="http://www.w3.org/2000/svg"
   width="544.23114"
   height="388.92871"
   viewBox="0 0 544.23114 388.92871"
   version="1.1"
   id="svg2216">
  <defs
     id="defs2210">
    <linearGradient
       id="linearGradient2820"
       osb:paint="solid">
      <stop
         style="stop-color:#0000d9;stop-opacity:1;"
         offset="0"
         id="stop2818" />
    </linearGradient>
  </defs>
  <metadata
     id="metadata2213">
    <rdf:RDF>
      <cc:Work
         rdf:about="">
        <dc:format>image/svg+xml</dc:format>
        <dc:type
           rdf:resource="http://purl.org/dc/dcmitype/StillImage" />
        <dc:title></dc:title>
      </cc:Work>
    </rdf:RDF>
  </metadata>
  <g
     id="layer1"
     transform="translate(371.93631,-105.19947)">
    <g
       aria-label="C"
       transform="matrix(0.81977803,0.47329907,-0.52820725,0.91488179,125.92375,119.02349)"
       style="font-style:normal;font-variant:normal;font-weight:normal;font-stretch:normal;font-size:40.5834px;line-height:1.25;font-family:'Open Sans';-inkscape-font-specification:'Open Sans, Normal';font-variant-ligatures:normal;font-variant-caps:normal;font-variant-numeric:normal;font-feature-settings:normal;text-align:start;letter-spacing:0px;word-spacing:0px;writing-mode:lr-tb;text-anchor:start;fill:#000000;fill-opacity:1;stroke:#2f00d9;stroke-width:1;stroke-miterlimit:4;stroke-dasharray:none;stroke-opacity:1;stroke-linejoin:round"
       id="text831">
      <path
         d="m -203.26048,249.54956 q -13.14903,-6.00635 -13.31137,-19.48005 -0.16233,-11.5257 8.44136,-17.36972 8.60369,-6.00635 18.99305,-3.40901 9.5777,-11.68803 24.5124,-12.0127 15.42171,-0.32467 22.5644,6.65569 7.14269,6.98035 6.81802,18.50605 -0.32467,15.25937 -12.4997,23.21373 -12.0127,7.95435 -31.00576,8.11669 -5.68168,0 -10.87636,-0.64934 -0.32467,6.00635 -0.487,29.70709 -0.487,73.21253 27.59674,74.18654 6.33102,0.16233 11.20103,-1.94801 5.03235,-2.11034 8.27903,-6.00635 3.24667,-3.89601 5.03234,-8.76602 1.94801,-4.87002 2.59734,-10.38937 -11.36336,1.94801 -17.85671,-2.435 -6.33102,-4.38302 -6.33102,-11.68804 0,-6.33101 3.89601,-10.38936 3.89601,-4.05834 10.22703,-3.89601 17.04505,0.32467 16.39571,24.9994 0,0.64934 0,1.13634 2.27268,-0.487 4.54535,-1.13634 2.43501,-0.81166 4.87001,-1.78567 -5.03235,2.27268 -9.57769,3.73368 -0.974,12.9867 -9.90236,22.40206 -8.92836,9.41536 -23.0514,9.41536 -12.66204,0 -21.10339,-4.70768 -8.27903,-4.87001 -12.9867,-15.25937 -4.70768,-10.38937 -6.65569,-24.18774 -1.94801,-13.79837 -1.94801,-34.41476 -0.16233,-18.34372 1.62334,-32.14209 z m 68.01786,79.21889 q 0.16233,-1.29867 0.16233,-2.59734 1.13634,-22.23973 -10.22703,-22.88907 -5.19468,-0.16233 -8.11669,3.40901 -2.922,3.40901 -2.75967,9.09069 0.16233,7.14269 5.68168,10.5517 5.68169,3.40901 15.25938,2.43501 z m -46.1028,-116.06866 q 1.62334,0.974 3.08435,2.27267 1.461,1.29867 2.75967,2.92201 -3.24668,-2.43501 -6.33102,-4.22068 -6.16868,12.4997 -7.62969,36.84977 5.19469,0.81167 10.87637,0.81167 15.90871,-0.16233 25.16173,-7.14269 9.41536,-7.14268 10.0647,-20.77872 0.487,-12.17503 -4.70768,-18.18138 -5.19468,-6.00635 -15.58404,-5.35702 -5.84402,0.32467 -10.22703,3.73368 -4.38301,3.24667 -7.46736,9.09069 z m -21.42806,33.92776 q 3.40901,-23.86306 12.82437,-36.20043 -10.38936,-2.43501 -17.36971,3.89601 -6.81802,6.16868 -6.49335,16.07104 0.32466,10.71403 11.03869,16.23338 z"
         style="font-style:normal;font-variant:normal;font-weight:normal;font-stretch:normal;font-size:162.334px;font-family:'Free Monogram Beta';-inkscape-font-specification:'Free Monogram Beta';fill:#000000;fill-opacity:1;stroke:#2f00d9;stroke-width:1;stroke-miterlimit:4;stroke-dasharray:none;stroke-opacity:1;stroke-linejoin:round"
         id="path832" />
    </g>
    <g
       transform="matrix(-1.0660474,0,0,-1.0660474,-206.65628,618.11347)"
       id="g819"
       style="stroke:#2f00d9;stroke-opacity:1;stroke-linejoin:round">
      <path
         id="rect1805"
         d="m -254.72193,267.76507 -43.26563,31.36914 43.26563,31.36914 z"
         style="opacity:1;fill:#000000;fill-opacity:1;stroke:#2f00d9;stroke-width:6.935;stroke-linecap:butt;stroke-linejoin:round;stroke-miterlimit:4;stroke-dasharray:none;stroke-dashoffset:0;stroke-opacity:1;paint-order:fill markers stroke" />
      <path
         style="opacity:1;fill:#000000;fill-opacity:1;stroke:#2f00d9;stroke-width:6.935;stroke-linecap:butt;stroke-linejoin:round;stroke-miterlimit:4;stroke-dasharray:none;stroke-dashoffset:0;stroke-opacity:1;paint-order:fill markers stroke"
         d="M 53.405844,267.76507 96.67143,299.13421 53.405844,330.50335 Z"
         id="path1816" />
      <path
         id="rect1820"
         d="m -468.59775,50.44603 h 295.60587 V 346.0519 h -295.60587 z"
         style="opacity:1;fill:none;fill-opacity:1;stroke:#2f00d9;stroke-width:7.14794;stroke-linecap:butt;stroke-linejoin:round;stroke-miterlimit:4;stroke-dasharray:none;stroke-dashoffset:0;stroke-opacity:1;paint-order:fill markers stroke"
         transform="matrix(0.81778784,-0.5755198,0.81778784,0.5755198,0,0)" />
    </g>
    <g
       aria-label="J"
       transform="matrix(0.81977803,0.47329907,-0.52820725,0.91488179,141.6654,60.595954)"
       style="font-style:normal;font-variant:normal;font-weight:normal;font-stretch:normal;font-size:40.5834px;line-height:1.25;font-family:'Open Sans';-inkscape-font-specification:'Open Sans, Normal';font-variant-ligatures:normal;font-variant-caps:normal;font-variant-numeric:normal;font-feature-settings:normal;text-align:start;letter-spacing:0px;word-spacing:0px;writing-mode:lr-tb;text-anchor:start;fill:#000000;fill-opacity:1;stroke:#2f00d9;stroke-width:1;stroke-miterlimit:4;stroke-dasharray:none;stroke-opacity:1;stroke-linejoin:round"
       id="text836">
      <path
         d="m -86.419764,329.72725 q -0.162334,-8.76602 2.272673,-14.93471 2.435006,-6.33101 6.818019,-9.57769 4.383012,-3.40901 9.253025,-4.70768 4.870014,-1.461 10.227029,-1.461 8.279023,0.16233 12.499701,6.33101 4.383013,6.16869 0,16.55805 3.246676,-9.74003 -1.461004,-15.25938 -4.545346,-5.68168 -10.876363,-5.51934 -9.41536,0.16233 -12.824369,7.14268 -3.246676,6.81802 -2.597341,21.10339 1.29867,29.22009 31.655088,28.08375 22.889064,-0.81167 22.72673,-27.75908 -0.162334,-8.27902 -4.70768,-29.38241 -4.383012,-21.1034 -5.681682,-29.38242 -6.00635,1.46101 -10.876364,1.46101 -19.642388,-0.32467 -31.492754,-10.22703 -11.688033,-10.0647 -11.038698,-28.24608 0.649336,-20.29172 12.986703,-28.57075 12.337368,-8.27902 33.603094,-7.95435 12.499701,0.16233 23.538399,8.76602 -7.30502,7.46736 -8.766025,18.83072 5.032348,0.64934 9.090693,2.92201 4.0583442,2.11034 6.6556847,6.16868 2.5973406,3.89601 2.5973406,8.92836 -0.1623338,14.12304 -12.8243693,22.40206 2.272673,9.25303 3.246676,13.31137 0.974003,3.89601 2.5973405,12.0127 1.6233379,7.95436 2.1103392,14.61004 0.4870014,6.49336 0.3246676,12.98671 -1.4610041,41.55745 -33.7654273,42.04445 -44.479458,0.487 -45.291126,-30.68109 z m 65.095848,-103.40662 q -1.136337,11.68803 5.194681,36.84977 10.7140297,-7.46735 10.8763635,-19.80472 0.1623338,-7.30502 -4.545346,-11.68803 -4.5453455,-4.54535 -11.5256985,-5.35702 z M -27.4926,226.1583 q -4.220679,0.487 -7.954356,2.11034 -3.571343,1.461 -6.493351,4.38301 -2.922008,2.75967 -4.220679,6.49335 0.487002,-2.27267 1.461005,-4.05834 0.974002,-1.94801 2.272673,-3.40901 1.461004,-1.62334 3.084341,-2.75968 1.785672,-1.29867 3.733678,-2.11034 1.948005,-0.81167 4.058344,-1.29867 2.272673,-0.487 4.545346,-0.64933 3.571343,-10.38937 10.876364,-18.34372 -2.597341,-3.08434 -9.740027,-5.35702 -7.142687,-2.435 -12.499702,-2.27267 -15.746377,0.16233 -24.187734,9.74003 -8.279023,9.57769 -7.954355,25.64874 0.324667,15.74637 8.116689,25.64873 7.954355,9.90237 22.239729,10.5517 4.707679,0.16233 10.714029,-1.461 -3.571343,-25.81108 1.948006,-42.85612 z"
         style="font-style:normal;font-variant:normal;font-weight:normal;font-stretch:normal;font-size:162.334px;font-family:'Free Monogram Beta';-inkscape-font-specification:'Free Monogram Beta';fill:#000000;fill-opacity:1;stroke:#2f00d9;stroke-width:1;stroke-miterlimit:4;stroke-dasharray:none;stroke-opacity:1;stroke-linejoin:round"
         id="path829" />
    </g>
  </g>
</svg>
