<?xml version="1.0" encoding="UTF-8" standalone="no"?>
<svg
   xmlns:dc="http://purl.org/dc/elements/1.1/"
   xmlns:cc="http://creativecommons.org/ns#"
   xmlns:rdf="http://www.w3.org/1999/02/22-rdf-syntax-ns#"
   xmlns:svg="http://www.w3.org/2000/svg"
   xmlns="http://www.w3.org/2000/svg"
   xmlns:sodipodi="http://sodipodi.sourceforge.net/DTD/sodipodi-0.dtd"
   xmlns:inkscape="http://www.inkscape.org/namespaces/inkscape"
   width="310.30103"
   height="293.60925"
   enable-background="new 0 0 542.735 490.598"
   version="1.1"
   viewBox="0 0 310.29818 293.60806"
   xml:space="preserve"
   id="svg558"
   sodipodi:docname="railroad-tracks-clipart-ffffff.svg"
   inkscape:version="1.0.1 (3bc2e813f5, 2020-09-07)"><metadata
   id="metadata564"><rdf:RDF><cc:Work
       rdf:about=""><dc:format>image/svg+xml</dc:format><dc:type
         rdf:resource="http://purl.org/dc/dcmitype/StillImage" /><dc:title></dc:title></cc:Work></rdf:RDF></metadata><defs
   id="defs562">
	
	

					
					
					
					
					
					
					
					
					
					
					
					
					
					
					
					
					
					
					
					
					
					
					
					
					
					
					
					
					
					
					
					
					
					
					
					
					
					
					
					
					
					
					
					
					
					
					
					
					
					
					
					
					
					
					
					
					
					
					
					
					
					
					
					
						
						
					
					
						
						
					
					
					
					
					
					
					
					
					
					
					
					
					
					
					
					
					
					
					
					
					
					
					
					
					
					
					
					
					
					
					
					
					
					
					
					
					
					
					
					
					
					
					
					
					
					
					
					
					
					
					
					
					
					
					
					
					
					
					
					
					
					
					
					
					
					
					
					
					
					
					
					
					
					
					
					
					
					
					
					
					
					
					
					
					
					
					
					
					
					
					
					
					
					
					
					
					
					
					
					
					
					
					
					
					
					
					
					
					
					
					
					
					
					
					
					
					
					
					
					
					
					
					
					
					
					
					
					
					
					
					
					
					
					
					
					
					
					
					
					
					
					
					
					
					
					
					
					
					
					
					
					
					
					
					
					
					
					
					
					
					
					
					
					
					
					
					
					
					
					
					
					
					
					
					
					
					
					
					
					
					
					
					
					
					
					
					
					
					
					
					
					
					
						
						
						
						
					
					
					
					
					
					
					
				
				
	</defs><sodipodi:namedview
   pagecolor="white"
   bordercolor="#666666"
   borderopacity="1"
   objecttolerance="10"
   gridtolerance="10"
   guidetolerance="10"
   inkscape:pageopacity="0"
   inkscape:pageshadow="2"
   inkscape:window-width="1366"
   inkscape:window-height="705"
   id="namedview560"
   showgrid="false"
   inkscape:zoom="0.9620872"
   inkscape:cx="301.88791"
   inkscape:cy="224.65716"
   inkscape:window-x="-8"
   inkscape:window-y="-8"
   inkscape:window-maximized="1"
   inkscape:current-layer="svg558"
   inkscape:showpageshadow="false"
   fit-margin-top="10"
   fit-margin-left="10"
   fit-margin-right="10"
   fit-margin-bottom="20"
   inkscape:document-rotation="0" />

<polygon
   transform="matrix(0.61127285,0,0,0.61127285,-12.619105,-11.63622)"
   style="fill:none;stroke-width:1.42275"
   id="polygon196"
   points="405.14,342.48 144.06,342.48 134.86,373.96 414.34,373.96 " /><g
   transform="matrix(0.61127285,0,0,0.61127285,-12.619105,-11.63622)"
   id="g1141"
   style="stroke-width:1.42275"><rect
     x="85.163002"
     y="449.64001"
     width="22.672001"
     height="16.806"
     id="rect552"
     style="fill:#000000;fill-opacity:1;stroke-width:1.42275" /><path
     style="fill:#000000;fill-opacity:1;stroke:none;stroke-width:1.42275px;stroke-linecap:butt;stroke-linejoin:miter;stroke-opacity:1"
     d="m 107.83501,466.44601 v -16.806 l 125.20188,-413.75472 4.25785,-0.05056 z"
     id="path1087"
     inkscape:connector-curvature="0"
     sodipodi:nodetypes="ccccc" /><path
     sodipodi:nodetypes="ccccc"
     inkscape:connector-curvature="0"
     id="path1117"
     d="m 223.63338,36.950126 8.17059,-0.106841 -123.904,411.822325 H 86.458973 Z"
     style="opacity:1;fill:#ffffff;fill-opacity:1;stroke:#000000;stroke-width:2.8455;stroke-linecap:butt;stroke-linejoin:miter;stroke-miterlimit:4;stroke-dasharray:none;stroke-dashoffset:0;stroke-opacity:1;paint-order:fill markers stroke" /></g><g
   transform="matrix(0.61127285,0,0,0.61127285,-12.619105,-11.63622)"
   id="g1134"
   style="stroke-width:1.42275"><polygon
     points="441.27,449.7 441.36,466.64 464.04,466.64 464.04,449.64 "
     id="polygon550"
     style="fill:#000000;fill-opacity:1;stroke-width:1.42275" /><path
     sodipodi:nodetypes="ccccc"
     inkscape:connector-curvature="0"
     id="path1123"
     d="M 445.77722,449.89905 441.36,466.64 302.30624,36.409591 l 6.78782,-0.01537 z"
     style="fill:#000000;fill-opacity:1;stroke:none;stroke-width:1.42275px;stroke-linecap:butt;stroke-linejoin:miter;stroke-opacity:1" /><path
     style="opacity:1;fill:#ffffff;fill-opacity:1;stroke:#000000;stroke-width:2.8455;stroke-linecap:butt;stroke-linejoin:miter;stroke-miterlimit:4;stroke-dasharray:none;stroke-dashoffset:0;stroke-opacity:1;paint-order:fill markers stroke"
     d="m 309.40263,37.401145 8.41147,-0.07574 144.9397,411.993045 -17.73647,-0.0789 z"
     id="path1125"
     inkscape:connector-curvature="0"
     sodipodi:nodetypes="ccccc" /></g><g
   transform="matrix(0.51702563,0,0,0.51934345,12.250042,-20.851282)"
   id="g1220"
   style="stroke-width:1.42275"><polygon
     style="fill:#000000;fill-opacity:1;stroke-width:1.42275"
     id="polygon1170"
     points="93.48,423.46 95.543,416.85 73.866,416.78 87.89,378.4 107.53,378.47 108.8,374.38 53.816,374.38 34.143,423.46 " /><polygon
     style="fill:#000000;fill-opacity:1;stroke-width:1.42275"
     id="polygon1172"
     points="517.48,423.46 497.8,374.38 440.4,374.38 441.67,378.47 461.85,378.4 475.88,416.78 453.65,416.85 455.72,423.46 " /><polygon
     style="fill:#000000;fill-opacity:1;stroke-width:1.42275"
     id="polygon1174"
     points="518.1,434.46 518.1,423.88 455.41,423.88 458.71,434.46 " /><polygon
     style="fill:#000000;fill-opacity:1;stroke-width:1.42275"
     id="polygon1176"
     points="90.488,434.46 93.79,423.88 33.521,423.88 33.521,434.46 " /><polygon
     style="fill:#000000;fill-opacity:1;stroke-width:1.42275"
     id="polygon1178"
     points="387.3,378.65 415.24,378.56 414.02,374.38 135.18,374.38 133.96,378.55 162.44,378.65 154.51,417.04 122.74,416.94 120.84,423.46 428.36,423.46 426.46,416.94 395.23,417.04 " /><polygon
     style="fill:#000000;fill-opacity:1;stroke-width:1.42275"
     id="polygon1180"
     points="117.19,434.46 432.02,434.46 428.92,423.88 120.28,423.88 " /><path
     style="fill:#ffffff;stroke-width:1.42275"
     inkscape:connector-curvature="0"
     id="path1182"
     d="m 108.23,374.8 -1.013,3.245 -19.03,-0.063 -0.591,-0.003 -0.203,0.555 -13.717,37.538 -0.411,1.126 1.199,0.004 20.508,0.068 -1.801,5.771 H 34.766 l 19.335,-48.24 h 54.129 m 1.145,-0.842 H 53.532 l -20.01,49.922 h 60.269 l 2.325,-7.448 -21.648,-0.072 13.717,-37.538 19.651,0.065 z" /><path
     style="fill:#ffffff;stroke-width:1.42275"
     inkscape:connector-curvature="0"
     id="path1184"
     d="m 497.52,374.8 19.334,48.24 h -60.825 l -1.801,-5.769 21.051,-0.07 1.198,-0.004 -0.412,-1.126 -13.717,-37.538 -0.201,-0.555 -0.592,0.003 -19.571,0.065 -1.014,-3.247 h 56.55 m 0.568,-0.84 h -58.262 l 1.539,4.932 20.192,-0.068 13.717,37.538 -22.189,0.074 2.324,7.446 h 62.688 z" /><path
     style="fill:#ffffff;stroke-width:1.42275"
     inkscape:connector-curvature="0"
     id="path1186"
     d="m 413.71,374.8 0.975,3.337 -26.868,0.09 -1.029,0.004 0.209,1.008 7.76,37.556 0.14,0.673 0.688,-0.003 30.563,-0.101 1.658,5.677 h -306.4 l 1.658,-5.679 31.104,0.103 0.688,0.003 0.139,-0.673 7.76,-37.556 0.208,-1.008 -1.029,-0.004 -27.409,-0.092 0.974,-3.335 h 278.21 m 0.631,-0.841 H 134.86 l -1.464,5.015 28.527,0.094 -7.76,37.556 -31.736,-0.105 -2.151,7.363 h 308.64 l -2.152,-7.361 -31.193,0.104 -7.76,-37.556 27.986,-0.092 -1.466,-5.018 z" /><path
     style="fill:#ffffff;stroke-width:1.42275"
     inkscape:connector-curvature="0"
     id="path1188"
     d="m 99.877,392.78 c -2.276,-0.007 -4.731,1.886 -5.492,4.246 -0.766,2.379 0.482,4.328 2.794,4.335 1.577,0.005 3.217,-0.907 4.339,-2.236 l 1.28,-4.104 c -0.291,-1.325 -1.358,-2.237 -2.921,-2.241 z" /><path
     style="fill:#ffffff;stroke-width:1.42275"
     inkscape:connector-curvature="0"
     id="path1190"
     d="m 148.48,392.92 c -2.275,-0.006 -4.563,1.887 -5.114,4.246 -0.556,2.382 0.864,4.331 3.177,4.338 2.312,0.007 4.611,-1.933 5.131,-4.313 0.515,-2.359 -0.917,-4.264 -3.194,-4.271 z" /><path
     style="fill:#ffffff;stroke-width:1.42275"
     inkscape:connector-curvature="0"
     id="path1192"
     d="m 127.08,410.31 c 2.349,0.006 4.754,-1.996 5.365,-4.452 0.608,-2.434 -0.78,-4.399 -3.091,-4.405 -0.962,-0.003 -1.93,0.348 -2.789,0.918 l -1.987,6.8 c 0.567,0.696 1.425,1.134 2.502,1.139 z" /><path
     style="fill:#ffffff;stroke-width:1.42275"
     inkscape:connector-curvature="0"
     id="path1194"
     d="m 124,405.83 c -0.351,1.33 -0.095,2.516 0.572,3.337 l 1.987,-6.8 c -1.203,0.797 -2.182,2.042 -2.559,3.463 z" /><path
     style="fill:#ffffff;stroke-width:1.42275"
     inkscape:connector-curvature="0"
     id="path1196"
     d="m 136.72,388.69 c 0.571,-2.289 -0.789,-4.136 -3.031,-4.143 -0.704,-0.002 -1.408,0.195 -2.07,0.513 l -2.088,7.148 c 0.528,0.412 1.212,0.662 2.021,0.664 2.278,0.007 4.593,-1.872 5.168,-4.182 z" /><path
     style="fill:#ffffff;stroke-width:1.42275"
     inkscape:connector-curvature="0"
     id="path1198"
     d="m 128.54,388.67 c -0.393,1.487 0.035,2.793 0.992,3.542 l 2.088,-7.148 c -1.445,0.695 -2.665,2.034 -3.08,3.606 z" /><path
     style="fill:#ffffff;stroke-width:1.42275"
     inkscape:connector-curvature="0"
     id="path1200"
     d="m 455.36,397.03 c -0.761,-2.36 -3.216,-4.253 -5.492,-4.246 -2.276,0.007 -3.54,1.91 -2.814,4.27 0.729,2.38 3.201,4.318 5.513,4.312 2.312,-0.008 3.56,-1.957 2.793,-4.336 z" /><path
     style="fill:#ffffff;stroke-width:1.42275"
     inkscape:connector-curvature="0"
     id="path1202"
     d="m 401.27,392.92 c -2.277,0.007 -3.709,1.911 -3.193,4.271 0.52,2.381 2.818,4.32 5.131,4.313 2.313,-0.007 3.732,-1.956 3.177,-4.338 -0.552,-2.359 -2.84,-4.251 -5.115,-4.246 z" /><path
     style="fill:#ffffff;stroke-width:1.42275"
     inkscape:connector-curvature="0"
     id="path1204"
     d="m 417.3,405.86 c 0.611,2.456 3.017,4.458 5.365,4.452 0.837,-0.003 1.543,-0.27 2.086,-0.71 l -2.222,-7.603 c -0.686,-0.337 -1.413,-0.548 -2.138,-0.545 -2.311,0.006 -3.699,1.972 -3.091,4.406 z" /><path
     style="fill:#ffffff;stroke-width:1.42275"
     inkscape:connector-curvature="0"
     id="path1206"
     d="m 425.74,405.83 c -0.441,-1.671 -1.712,-3.096 -3.209,-3.836 l 2.222,7.603 c 0.978,-0.798 1.404,-2.186 0.987,-3.767 z" /><path
     style="fill:#ffffff;stroke-width:1.42275"
     inkscape:connector-curvature="0"
     id="path1208"
     d="m 413.02,388.69 c 0.575,2.31 2.891,4.189 5.167,4.183 0.593,-0.002 1.118,-0.136 1.567,-0.368 l -2.25,-7.698 c -0.476,-0.16 -0.965,-0.259 -1.453,-0.259 -2.243,0.006 -3.603,1.853 -3.031,4.142 z" /><path
     style="fill:#ffffff;stroke-width:1.42275"
     inkscape:connector-curvature="0"
     id="path1210"
     d="m 421.2,388.67 c -0.474,-1.79 -1.987,-3.289 -3.696,-3.86 l 2.25,7.698 c 1.272,-0.658 1.897,-2.132 1.446,-3.838 z" /><path
     style="fill:#000000;fill-opacity:1;stroke-width:1.42275"
     inkscape:connector-curvature="0"
     id="path1212"
     d="m 74.467,416.36 21.648,0.072 5.403,-17.308 c -1.122,1.329 -2.762,2.241 -4.339,2.236 -2.313,-0.007 -3.56,-1.956 -2.794,-4.335 0.761,-2.36 3.216,-4.253 5.492,-4.246 1.563,0.004 2.63,0.916 2.921,2.241 l 5.037,-16.134 -19.651,-0.065 z" /><path
     style="fill:#000000;fill-opacity:1;stroke-width:1.42275"
     inkscape:connector-curvature="0"
     id="path1214"
     d="m 131.62,385.06 c 0.662,-0.313 1.357,-0.518 2.063,-0.504 2.244,0 3.601,1.849 3.028,4.139 -0.572,2.311 -2.882,4.184 -5.159,4.184 -0.808,-0.011 -1.492,-0.258 -2.03,-0.674 l -2.961,10.174 c 0.853,-0.572 1.828,-0.932 2.782,-0.92 2.311,0 3.701,1.963 3.096,4.41 -0.618,2.444 -3.018,4.451 -5.362,4.44 -1.077,0 -1.94,-0.438 -2.501,-1.133 l -2.153,7.349 31.744,0.101 7.751,-37.556 -28.525,-0.09 z m 11.733,12.115 c 0.549,-2.368 2.837,-4.264 5.114,-4.253 2.277,0.012 3.713,1.908 3.197,4.274 -0.516,2.377 -2.815,4.318 -5.126,4.308 -2.321,0 -3.735,-1.952 -3.185,-4.329 z" /><path
     style="fill:#000000;fill-opacity:1;stroke-width:1.42275"
     inkscape:connector-curvature="0"
     id="path1216"
     d="m 461.56,378.82 -20.201,0.067 11.721,37.545 22.188,-0.068 z m -8.997,22.534 c -2.311,0.012 -4.791,-1.928 -5.52,-4.307 -0.729,-2.355 0.538,-4.261 2.816,-4.261 2.276,-0.012 4.732,1.884 5.496,4.239 0.764,2.378 -0.482,4.329 -2.792,4.329 z" /><path
     style="fill:#000000;fill-opacity:1;stroke-width:1.42275"
     inkscape:connector-curvature="0"
     id="path1218"
     d="m 422.66,410.31 c -2.346,0.011 -4.756,-1.996 -5.363,-4.44 -0.604,-2.447 0.774,-4.41 3.097,-4.41 0.718,0 1.447,0.203 2.131,0.539 l -2.771,-9.489 c -0.448,0.234 -0.976,0.359 -1.569,0.37 -2.277,0 -4.588,-1.873 -5.172,-4.184 -0.561,-2.29 0.797,-4.139 3.04,-4.139 0.482,-0.014 0.976,0.09 1.447,0.245 l -1.706,-5.821 -27.975,0.09 7.751,37.556 31.194,-0.101 -2.019,-6.921 c -0.538,0.436 -1.243,0.705 -2.085,0.705 z m -19.462,-8.805 c -2.311,0.011 -4.611,-1.931 -5.127,-4.308 -0.516,-2.366 0.92,-4.263 3.197,-4.274 2.266,-0.011 4.554,1.885 5.115,4.253 0.551,2.377 -0.875,4.329 -3.185,4.329 z" /></g><g
   id="g1272"
   transform="matrix(0.44583211,0,0,0.44583211,31.491512,-28.886627)"
   style="stroke-width:1.42275"><polygon
     points="108.8,374.38 53.816,374.38 34.143,423.46 93.48,423.46 95.543,416.85 73.866,416.78 87.89,378.4 107.53,378.47 "
     id="polygon1222"
     style="fill:#000000;fill-opacity:1;stroke-width:1.42275" /><polygon
     points="475.88,416.78 453.65,416.85 455.72,423.46 517.48,423.46 497.8,374.38 440.4,374.38 441.67,378.47 461.85,378.4 "
     id="polygon1224"
     style="fill:#000000;fill-opacity:1;stroke-width:1.42275" /><polygon
     points="518.1,423.88 455.41,423.88 458.71,434.46 518.1,434.46 "
     id="polygon1226"
     style="fill:#000000;fill-opacity:1;stroke-width:1.42275" /><polygon
     points="93.79,423.88 33.521,423.88 33.521,434.46 90.488,434.46 "
     id="polygon1228"
     style="fill:#000000;fill-opacity:1;stroke-width:1.42275" /><polygon
     points="162.44,378.65 154.51,417.04 122.74,416.94 120.84,423.46 428.36,423.46 426.46,416.94 395.23,417.04 387.3,378.65 415.24,378.56 414.02,374.38 135.18,374.38 133.96,378.55 "
     id="polygon1230"
     style="fill:#000000;fill-opacity:1;stroke-width:1.42275" /><polygon
     points="432.02,434.46 428.92,423.88 120.28,423.88 117.19,434.46 "
     id="polygon1232"
     style="fill:#000000;fill-opacity:1;stroke-width:1.42275" /><path
     d="m 108.23,374.8 -1.013,3.245 -19.03,-0.063 -0.591,-0.003 -0.203,0.555 -13.717,37.538 -0.411,1.126 1.199,0.004 20.508,0.068 -1.801,5.771 H 34.766 l 19.335,-48.24 h 54.129 m 1.145,-0.842 H 53.532 l -20.01,49.922 h 60.269 l 2.325,-7.448 -21.648,-0.072 13.717,-37.538 19.651,0.065 z"
     id="path1234"
     inkscape:connector-curvature="0"
     style="fill:#ffffff;stroke-width:1.42275" /><path
     d="m 497.52,374.8 19.334,48.24 h -60.825 l -1.801,-5.769 21.051,-0.07 1.198,-0.004 -0.412,-1.126 -13.717,-37.538 -0.201,-0.555 -0.592,0.003 -19.571,0.065 -1.014,-3.247 h 56.55 m 0.568,-0.84 h -58.262 l 1.539,4.932 20.192,-0.068 13.717,37.538 -22.189,0.074 2.324,7.446 h 62.688 z"
     id="path1236"
     inkscape:connector-curvature="0"
     style="fill:#ffffff;stroke-width:1.42275" /><path
     d="m 413.71,374.8 0.975,3.337 -26.868,0.09 -1.029,0.004 0.209,1.008 7.76,37.556 0.14,0.673 0.688,-0.003 30.563,-0.101 1.658,5.677 h -306.4 l 1.658,-5.679 31.104,0.103 0.688,0.003 0.139,-0.673 7.76,-37.556 0.208,-1.008 -1.029,-0.004 -27.409,-0.092 0.974,-3.335 h 278.21 m 0.631,-0.841 H 134.86 l -1.464,5.015 28.527,0.094 -7.76,37.556 -31.736,-0.105 -2.151,7.363 h 308.64 l -2.152,-7.361 -31.193,0.104 -7.76,-37.556 27.986,-0.092 -1.466,-5.018 z"
     id="path1238"
     inkscape:connector-curvature="0"
     style="fill:#ffffff;stroke-width:1.42275" /><path
     d="m 99.877,392.78 c -2.276,-0.007 -4.731,1.886 -5.492,4.246 -0.766,2.379 0.482,4.328 2.794,4.335 1.577,0.005 3.217,-0.907 4.339,-2.236 l 1.28,-4.104 c -0.291,-1.325 -1.358,-2.237 -2.921,-2.241 z"
     id="path1240"
     inkscape:connector-curvature="0"
     style="fill:#ffffff;stroke-width:1.42275" /><path
     d="m 148.48,392.92 c -2.275,-0.006 -4.563,1.887 -5.114,4.246 -0.556,2.382 0.864,4.331 3.177,4.338 2.312,0.007 4.611,-1.933 5.131,-4.313 0.515,-2.359 -0.917,-4.264 -3.194,-4.271 z"
     id="path1242"
     inkscape:connector-curvature="0"
     style="fill:#ffffff;stroke-width:1.42275" /><path
     d="m 127.08,410.31 c 2.349,0.006 4.754,-1.996 5.365,-4.452 0.608,-2.434 -0.78,-4.399 -3.091,-4.405 -0.962,-0.003 -1.93,0.348 -2.789,0.918 l -1.987,6.8 c 0.567,0.696 1.425,1.134 2.502,1.139 z"
     id="path1244"
     inkscape:connector-curvature="0"
     style="fill:#ffffff;stroke-width:1.42275" /><path
     d="m 124,405.83 c -0.351,1.33 -0.095,2.516 0.572,3.337 l 1.987,-6.8 c -1.203,0.797 -2.182,2.042 -2.559,3.463 z"
     id="path1246"
     inkscape:connector-curvature="0"
     style="fill:#ffffff;stroke-width:1.42275" /><path
     d="m 136.72,388.69 c 0.571,-2.289 -0.789,-4.136 -3.031,-4.143 -0.704,-0.002 -1.408,0.195 -2.07,0.513 l -2.088,7.148 c 0.528,0.412 1.212,0.662 2.021,0.664 2.278,0.007 4.593,-1.872 5.168,-4.182 z"
     id="path1248"
     inkscape:connector-curvature="0"
     style="fill:#ffffff;stroke-width:1.42275" /><path
     d="m 128.54,388.67 c -0.393,1.487 0.035,2.793 0.992,3.542 l 2.088,-7.148 c -1.445,0.695 -2.665,2.034 -3.08,3.606 z"
     id="path1250"
     inkscape:connector-curvature="0"
     style="fill:#ffffff;stroke-width:1.42275" /><path
     d="m 455.36,397.03 c -0.761,-2.36 -3.216,-4.253 -5.492,-4.246 -2.276,0.007 -3.54,1.91 -2.814,4.27 0.729,2.38 3.201,4.318 5.513,4.312 2.312,-0.008 3.56,-1.957 2.793,-4.336 z"
     id="path1252"
     inkscape:connector-curvature="0"
     style="fill:#ffffff;stroke-width:1.42275" /><path
     d="m 401.27,392.92 c -2.277,0.007 -3.709,1.911 -3.193,4.271 0.52,2.381 2.818,4.32 5.131,4.313 2.313,-0.007 3.732,-1.956 3.177,-4.338 -0.552,-2.359 -2.84,-4.251 -5.115,-4.246 z"
     id="path1254"
     inkscape:connector-curvature="0"
     style="fill:#ffffff;stroke-width:1.42275" /><path
     d="m 417.3,405.86 c 0.611,2.456 3.017,4.458 5.365,4.452 0.837,-0.003 1.543,-0.27 2.086,-0.71 l -2.222,-7.603 c -0.686,-0.337 -1.413,-0.548 -2.138,-0.545 -2.311,0.006 -3.699,1.972 -3.091,4.406 z"
     id="path1256"
     inkscape:connector-curvature="0"
     style="fill:#ffffff;stroke-width:1.42275" /><path
     d="m 425.74,405.83 c -0.441,-1.671 -1.712,-3.096 -3.209,-3.836 l 2.222,7.603 c 0.978,-0.798 1.404,-2.186 0.987,-3.767 z"
     id="path1258"
     inkscape:connector-curvature="0"
     style="fill:#ffffff;stroke-width:1.42275" /><path
     d="m 413.02,388.69 c 0.575,2.31 2.891,4.189 5.167,4.183 0.593,-0.002 1.118,-0.136 1.567,-0.368 l -2.25,-7.698 c -0.476,-0.16 -0.965,-0.259 -1.453,-0.259 -2.243,0.006 -3.603,1.853 -3.031,4.142 z"
     id="path1260"
     inkscape:connector-curvature="0"
     style="fill:#ffffff;stroke-width:1.42275" /><path
     d="m 421.2,388.67 c -0.474,-1.79 -1.987,-3.289 -3.696,-3.86 l 2.25,7.698 c 1.272,-0.658 1.897,-2.132 1.446,-3.838 z"
     id="path1262"
     inkscape:connector-curvature="0"
     style="fill:#ffffff;stroke-width:1.42275" /><path
     d="m 74.467,416.36 21.648,0.072 5.403,-17.308 c -1.122,1.329 -2.762,2.241 -4.339,2.236 -2.313,-0.007 -3.56,-1.956 -2.794,-4.335 0.761,-2.36 3.216,-4.253 5.492,-4.246 1.563,0.004 2.63,0.916 2.921,2.241 l 5.037,-16.134 -19.651,-0.065 z"
     id="path1264"
     inkscape:connector-curvature="0"
     style="fill:#000000;fill-opacity:1;stroke-width:1.42275" /><path
     d="m 131.62,385.06 c 0.662,-0.313 1.357,-0.518 2.063,-0.504 2.244,0 3.601,1.849 3.028,4.139 -0.572,2.311 -2.882,4.184 -5.159,4.184 -0.808,-0.011 -1.492,-0.258 -2.03,-0.674 l -2.961,10.174 c 0.853,-0.572 1.828,-0.932 2.782,-0.92 2.311,0 3.701,1.963 3.096,4.41 -0.618,2.444 -3.018,4.451 -5.362,4.44 -1.077,0 -1.94,-0.438 -2.501,-1.133 l -2.153,7.349 31.744,0.101 7.751,-37.556 -28.525,-0.09 z m 11.733,12.115 c 0.549,-2.368 2.837,-4.264 5.114,-4.253 2.277,0.012 3.713,1.908 3.197,4.274 -0.516,2.377 -2.815,4.318 -5.126,4.308 -2.321,0 -3.735,-1.952 -3.185,-4.329 z"
     id="path1266"
     inkscape:connector-curvature="0"
     style="fill:#000000;fill-opacity:1;stroke-width:1.42275" /><path
     d="m 461.56,378.82 -20.201,0.067 11.721,37.545 22.188,-0.068 z m -8.997,22.534 c -2.311,0.012 -4.791,-1.928 -5.52,-4.307 -0.729,-2.355 0.538,-4.261 2.816,-4.261 2.276,-0.012 4.732,1.884 5.496,4.239 0.764,2.378 -0.482,4.329 -2.792,4.329 z"
     id="path1268"
     inkscape:connector-curvature="0"
     style="fill:#000000;fill-opacity:1;stroke-width:1.42275" /><path
     d="m 422.66,410.31 c -2.346,0.011 -4.756,-1.996 -5.363,-4.44 -0.604,-2.447 0.774,-4.41 3.097,-4.41 0.718,0 1.447,0.203 2.131,0.539 l -2.771,-9.489 c -0.448,0.234 -0.976,0.359 -1.569,0.37 -2.277,0 -4.588,-1.873 -5.172,-4.184 -0.561,-2.29 0.797,-4.139 3.04,-4.139 0.482,-0.014 0.976,0.09 1.447,0.245 l -1.706,-5.821 -27.975,0.09 7.751,37.556 31.194,-0.101 -2.019,-6.921 c -0.538,0.436 -1.243,0.705 -2.085,0.705 z m -19.462,-8.805 c -2.311,0.011 -4.611,-1.931 -5.127,-4.308 -0.516,-2.366 0.92,-4.263 3.197,-4.274 2.266,-0.011 4.554,1.885 5.115,4.253 0.551,2.377 -0.875,4.329 -3.185,4.329 z"
     id="path1270"
     inkscape:connector-curvature="0"
     style="fill:#000000;fill-opacity:1;stroke-width:1.42275" /></g><g
   transform="matrix(0.37818385,0,0,0.37818385,50.626136,-33.542348)"
   id="g1324"
   style="stroke-width:1.42275"><polygon
     style="fill:#000000;fill-opacity:1;stroke-width:1.42275"
     id="polygon1274"
     points="34.143,423.46 93.48,423.46 95.543,416.85 73.866,416.78 87.89,378.4 107.53,378.47 108.8,374.38 53.816,374.38 " /><polygon
     style="fill:#000000;fill-opacity:1;stroke-width:1.42275"
     id="polygon1276"
     points="455.72,423.46 517.48,423.46 497.8,374.38 440.4,374.38 441.67,378.47 461.85,378.4 475.88,416.78 453.65,416.85 " /><polygon
     style="fill:#000000;fill-opacity:1;stroke-width:1.42275"
     id="polygon1278"
     points="458.71,434.46 518.1,434.46 518.1,423.88 455.41,423.88 " /><polygon
     style="fill:#000000;fill-opacity:1;stroke-width:1.42275"
     id="polygon1280"
     points="33.521,434.46 90.488,434.46 93.79,423.88 33.521,423.88 " /><polygon
     style="fill:#000000;fill-opacity:1;stroke-width:1.42275"
     id="polygon1282"
     points="122.74,416.94 120.84,423.46 428.36,423.46 426.46,416.94 395.23,417.04 387.3,378.65 415.24,378.56 414.02,374.38 135.18,374.38 133.96,378.55 162.44,378.65 154.51,417.04 " /><polygon
     style="fill:#000000;fill-opacity:1;stroke-width:1.42275"
     id="polygon1284"
     points="120.28,423.88 117.19,434.46 432.02,434.46 428.92,423.88 " /><path
     style="fill:#ffffff;stroke-width:1.42275"
     inkscape:connector-curvature="0"
     id="path1286"
     d="m 108.23,374.8 -1.013,3.245 -19.03,-0.063 -0.591,-0.003 -0.203,0.555 -13.717,37.538 -0.411,1.126 1.199,0.004 20.508,0.068 -1.801,5.771 H 34.766 l 19.335,-48.24 h 54.129 m 1.145,-0.842 H 53.532 l -20.01,49.922 h 60.269 l 2.325,-7.448 -21.648,-0.072 13.717,-37.538 19.651,0.065 z" /><path
     style="fill:#ffffff;stroke-width:1.42275"
     inkscape:connector-curvature="0"
     id="path1288"
     d="m 497.52,374.8 19.334,48.24 h -60.825 l -1.801,-5.769 21.051,-0.07 1.198,-0.004 -0.412,-1.126 -13.717,-37.538 -0.201,-0.555 -0.592,0.003 -19.571,0.065 -1.014,-3.247 h 56.55 m 0.568,-0.84 h -58.262 l 1.539,4.932 20.192,-0.068 13.717,37.538 -22.189,0.074 2.324,7.446 h 62.688 z" /><path
     style="fill:#ffffff;stroke-width:1.42275"
     inkscape:connector-curvature="0"
     id="path1290"
     d="m 413.71,374.8 0.975,3.337 -26.868,0.09 -1.029,0.004 0.209,1.008 7.76,37.556 0.14,0.673 0.688,-0.003 30.563,-0.101 1.658,5.677 h -306.4 l 1.658,-5.679 31.104,0.103 0.688,0.003 0.139,-0.673 7.76,-37.556 0.208,-1.008 -1.029,-0.004 -27.409,-0.092 0.974,-3.335 h 278.21 m 0.631,-0.841 H 134.86 l -1.464,5.015 28.527,0.094 -7.76,37.556 -31.736,-0.105 -2.151,7.363 h 308.64 l -2.152,-7.361 -31.193,0.104 -7.76,-37.556 27.986,-0.092 -1.466,-5.018 z" /><path
     style="fill:#ffffff;stroke-width:1.42275"
     inkscape:connector-curvature="0"
     id="path1292"
     d="m 99.877,392.78 c -2.276,-0.007 -4.731,1.886 -5.492,4.246 -0.766,2.379 0.482,4.328 2.794,4.335 1.577,0.005 3.217,-0.907 4.339,-2.236 l 1.28,-4.104 c -0.291,-1.325 -1.358,-2.237 -2.921,-2.241 z" /><path
     style="fill:#ffffff;stroke-width:1.42275"
     inkscape:connector-curvature="0"
     id="path1294"
     d="m 148.48,392.92 c -2.275,-0.006 -4.563,1.887 -5.114,4.246 -0.556,2.382 0.864,4.331 3.177,4.338 2.312,0.007 4.611,-1.933 5.131,-4.313 0.515,-2.359 -0.917,-4.264 -3.194,-4.271 z" /><path
     style="fill:#ffffff;stroke-width:1.42275"
     inkscape:connector-curvature="0"
     id="path1296"
     d="m 127.08,410.31 c 2.349,0.006 4.754,-1.996 5.365,-4.452 0.608,-2.434 -0.78,-4.399 -3.091,-4.405 -0.962,-0.003 -1.93,0.348 -2.789,0.918 l -1.987,6.8 c 0.567,0.696 1.425,1.134 2.502,1.139 z" /><path
     style="fill:#ffffff;stroke-width:1.42275"
     inkscape:connector-curvature="0"
     id="path1298"
     d="m 124,405.83 c -0.351,1.33 -0.095,2.516 0.572,3.337 l 1.987,-6.8 c -1.203,0.797 -2.182,2.042 -2.559,3.463 z" /><path
     style="fill:#ffffff;stroke-width:1.42275"
     inkscape:connector-curvature="0"
     id="path1300"
     d="m 136.72,388.69 c 0.571,-2.289 -0.789,-4.136 -3.031,-4.143 -0.704,-0.002 -1.408,0.195 -2.07,0.513 l -2.088,7.148 c 0.528,0.412 1.212,0.662 2.021,0.664 2.278,0.007 4.593,-1.872 5.168,-4.182 z" /><path
     style="fill:#ffffff;stroke-width:1.42275"
     inkscape:connector-curvature="0"
     id="path1302"
     d="m 128.54,388.67 c -0.393,1.487 0.035,2.793 0.992,3.542 l 2.088,-7.148 c -1.445,0.695 -2.665,2.034 -3.08,3.606 z" /><path
     style="fill:#ffffff;stroke-width:1.42275"
     inkscape:connector-curvature="0"
     id="path1304"
     d="m 455.36,397.03 c -0.761,-2.36 -3.216,-4.253 -5.492,-4.246 -2.276,0.007 -3.54,1.91 -2.814,4.27 0.729,2.38 3.201,4.318 5.513,4.312 2.312,-0.008 3.56,-1.957 2.793,-4.336 z" /><path
     style="fill:#ffffff;stroke-width:1.42275"
     inkscape:connector-curvature="0"
     id="path1306"
     d="m 401.27,392.92 c -2.277,0.007 -3.709,1.911 -3.193,4.271 0.52,2.381 2.818,4.32 5.131,4.313 2.313,-0.007 3.732,-1.956 3.177,-4.338 -0.552,-2.359 -2.84,-4.251 -5.115,-4.246 z" /><path
     style="fill:#ffffff;stroke-width:1.42275"
     inkscape:connector-curvature="0"
     id="path1308"
     d="m 417.3,405.86 c 0.611,2.456 3.017,4.458 5.365,4.452 0.837,-0.003 1.543,-0.27 2.086,-0.71 l -2.222,-7.603 c -0.686,-0.337 -1.413,-0.548 -2.138,-0.545 -2.311,0.006 -3.699,1.972 -3.091,4.406 z" /><path
     style="fill:#ffffff;stroke-width:1.42275"
     inkscape:connector-curvature="0"
     id="path1310"
     d="m 425.74,405.83 c -0.441,-1.671 -1.712,-3.096 -3.209,-3.836 l 2.222,7.603 c 0.978,-0.798 1.404,-2.186 0.987,-3.767 z" /><path
     style="fill:#ffffff;stroke-width:1.42275"
     inkscape:connector-curvature="0"
     id="path1312"
     d="m 413.02,388.69 c 0.575,2.31 2.891,4.189 5.167,4.183 0.593,-0.002 1.118,-0.136 1.567,-0.368 l -2.25,-7.698 c -0.476,-0.16 -0.965,-0.259 -1.453,-0.259 -2.243,0.006 -3.603,1.853 -3.031,4.142 z" /><path
     style="fill:#ffffff;stroke-width:1.42275"
     inkscape:connector-curvature="0"
     id="path1314"
     d="m 421.2,388.67 c -0.474,-1.79 -1.987,-3.289 -3.696,-3.86 l 2.25,7.698 c 1.272,-0.658 1.897,-2.132 1.446,-3.838 z" /><path
     style="fill:#000000;fill-opacity:1;stroke-width:1.42275"
     inkscape:connector-curvature="0"
     id="path1316"
     d="m 74.467,416.36 21.648,0.072 5.403,-17.308 c -1.122,1.329 -2.762,2.241 -4.339,2.236 -2.313,-0.007 -3.56,-1.956 -2.794,-4.335 0.761,-2.36 3.216,-4.253 5.492,-4.246 1.563,0.004 2.63,0.916 2.921,2.241 l 5.037,-16.134 -19.651,-0.065 z" /><path
     style="fill:#000000;fill-opacity:1;stroke-width:1.42275"
     inkscape:connector-curvature="0"
     id="path1318"
     d="m 131.62,385.06 c 0.662,-0.313 1.357,-0.518 2.063,-0.504 2.244,0 3.601,1.849 3.028,4.139 -0.572,2.311 -2.882,4.184 -5.159,4.184 -0.808,-0.011 -1.492,-0.258 -2.03,-0.674 l -2.961,10.174 c 0.853,-0.572 1.828,-0.932 2.782,-0.92 2.311,0 3.701,1.963 3.096,4.41 -0.618,2.444 -3.018,4.451 -5.362,4.44 -1.077,0 -1.94,-0.438 -2.501,-1.133 l -2.153,7.349 31.744,0.101 7.751,-37.556 -28.525,-0.09 z m 11.733,12.115 c 0.549,-2.368 2.837,-4.264 5.114,-4.253 2.277,0.012 3.713,1.908 3.197,4.274 -0.516,2.377 -2.815,4.318 -5.126,4.308 -2.321,0 -3.735,-1.952 -3.185,-4.329 z" /><path
     style="fill:#000000;fill-opacity:1;stroke-width:1.42275"
     inkscape:connector-curvature="0"
     id="path1320"
     d="m 461.56,378.82 -20.201,0.067 11.721,37.545 22.188,-0.068 z m -8.997,22.534 c -2.311,0.012 -4.791,-1.928 -5.52,-4.307 -0.729,-2.355 0.538,-4.261 2.816,-4.261 2.276,-0.012 4.732,1.884 5.496,4.239 0.764,2.378 -0.482,4.329 -2.792,4.329 z" /><path
     style="fill:#000000;fill-opacity:1;stroke-width:1.42275"
     inkscape:connector-curvature="0"
     id="path1322"
     d="m 422.66,410.31 c -2.346,0.011 -4.756,-1.996 -5.363,-4.44 -0.604,-2.447 0.774,-4.41 3.097,-4.41 0.718,0 1.447,0.203 2.131,0.539 l -2.771,-9.489 c -0.448,0.234 -0.976,0.359 -1.569,0.37 -2.277,0 -4.588,-1.873 -5.172,-4.184 -0.561,-2.29 0.797,-4.139 3.04,-4.139 0.482,-0.014 0.976,0.09 1.447,0.245 l -1.706,-5.821 -27.975,0.09 7.751,37.556 31.194,-0.101 -2.019,-6.921 c -0.538,0.436 -1.243,0.705 -2.085,0.705 z m -19.462,-8.805 c -2.311,0.011 -4.611,-1.931 -5.127,-4.308 -0.516,-2.366 0.92,-4.263 3.197,-4.274 2.266,-0.011 4.554,1.885 5.115,4.253 0.551,2.377 -0.875,4.329 -3.185,4.329 z" /></g><g
   style="stroke-width:1.43143"
   id="g1376"
   transform="matrix(0.32174227,0,0,0.32567574,65.863646,-41.807742)"><polygon
     points="93.48,423.46 95.543,416.85 73.866,416.78 87.89,378.4 107.53,378.47 108.8,374.38 53.816,374.38 34.143,423.46 "
     id="polygon1326"
     style="fill:#000000;fill-opacity:1;stroke-width:1.43143" /><polygon
     points="517.48,423.46 497.8,374.38 440.4,374.38 441.67,378.47 461.85,378.4 475.88,416.78 453.65,416.85 455.72,423.46 "
     id="polygon1328"
     style="fill:#000000;fill-opacity:1;stroke-width:1.43143" /><polygon
     points="518.1,434.46 518.1,423.88 455.41,423.88 458.71,434.46 "
     id="polygon1330"
     style="fill:#000000;fill-opacity:1;stroke-width:1.43143" /><polygon
     points="90.488,434.46 93.79,423.88 33.521,423.88 33.521,434.46 "
     id="polygon1332"
     style="fill:#000000;fill-opacity:1;stroke-width:1.43143" /><polygon
     points="133.96,378.55 162.44,378.65 154.51,417.04 122.74,416.94 120.84,423.46 428.36,423.46 426.46,416.94 395.23,417.04 387.3,378.65 415.24,378.56 414.02,374.38 135.18,374.38 "
     id="polygon1334"
     style="fill:#000000;fill-opacity:1;stroke-width:1.43143" /><polygon
     points="117.19,434.46 432.02,434.46 428.92,423.88 120.28,423.88 "
     id="polygon1336"
     style="fill:#000000;fill-opacity:1;stroke-width:1.43143" /><path
     d="m 108.23,374.8 -1.013,3.245 -19.03,-0.063 -0.591,-0.003 -0.203,0.555 -13.717,37.538 -0.411,1.126 1.199,0.004 20.508,0.068 -1.801,5.771 H 34.766 l 19.335,-48.24 h 54.129 m 1.145,-0.842 H 53.532 l -20.01,49.922 h 60.269 l 2.325,-7.448 -21.648,-0.072 13.717,-37.538 19.651,0.065 z"
     id="path1338"
     inkscape:connector-curvature="0"
     style="fill:#ffffff;stroke-width:1.43143" /><path
     d="m 497.52,374.8 19.334,48.24 h -60.825 l -1.801,-5.769 21.051,-0.07 1.198,-0.004 -0.412,-1.126 -13.717,-37.538 -0.201,-0.555 -0.592,0.003 -19.571,0.065 -1.014,-3.247 h 56.55 m 0.568,-0.84 h -58.262 l 1.539,4.932 20.192,-0.068 13.717,37.538 -22.189,0.074 2.324,7.446 h 62.688 z"
     id="path1340"
     inkscape:connector-curvature="0"
     style="fill:#ffffff;stroke-width:1.43143" /><path
     d="m 413.71,374.8 0.975,3.337 -26.868,0.09 -1.029,0.004 0.209,1.008 7.76,37.556 0.14,0.673 0.688,-0.003 30.563,-0.101 1.658,5.677 h -306.4 l 1.658,-5.679 31.104,0.103 0.688,0.003 0.139,-0.673 7.76,-37.556 0.208,-1.008 -1.029,-0.004 -27.409,-0.092 0.974,-3.335 h 278.21 m 0.631,-0.841 H 134.86 l -1.464,5.015 28.527,0.094 -7.76,37.556 -31.736,-0.105 -2.151,7.363 h 308.64 l -2.152,-7.361 -31.193,0.104 -7.76,-37.556 27.986,-0.092 -1.466,-5.018 z"
     id="path1342"
     inkscape:connector-curvature="0"
     style="fill:#ffffff;stroke-width:1.43143" /><path
     d="m 99.877,392.78 c -2.276,-0.007 -4.731,1.886 -5.492,4.246 -0.766,2.379 0.482,4.328 2.794,4.335 1.577,0.005 3.217,-0.907 4.339,-2.236 l 1.28,-4.104 c -0.291,-1.325 -1.358,-2.237 -2.921,-2.241 z"
     id="path1344"
     inkscape:connector-curvature="0"
     style="fill:#ffffff;stroke-width:1.43143" /><path
     d="m 148.48,392.92 c -2.275,-0.006 -4.563,1.887 -5.114,4.246 -0.556,2.382 0.864,4.331 3.177,4.338 2.312,0.007 4.611,-1.933 5.131,-4.313 0.515,-2.359 -0.917,-4.264 -3.194,-4.271 z"
     id="path1346"
     inkscape:connector-curvature="0"
     style="fill:#ffffff;stroke-width:1.43143" /><path
     d="m 127.08,410.31 c 2.349,0.006 4.754,-1.996 5.365,-4.452 0.608,-2.434 -0.78,-4.399 -3.091,-4.405 -0.962,-0.003 -1.93,0.348 -2.789,0.918 l -1.987,6.8 c 0.567,0.696 1.425,1.134 2.502,1.139 z"
     id="path1348"
     inkscape:connector-curvature="0"
     style="fill:#ffffff;stroke-width:1.43143" /><path
     d="m 124,405.83 c -0.351,1.33 -0.095,2.516 0.572,3.337 l 1.987,-6.8 c -1.203,0.797 -2.182,2.042 -2.559,3.463 z"
     id="path1350"
     inkscape:connector-curvature="0"
     style="fill:#ffffff;stroke-width:1.43143" /><path
     d="m 136.72,388.69 c 0.571,-2.289 -0.789,-4.136 -3.031,-4.143 -0.704,-0.002 -1.408,0.195 -2.07,0.513 l -2.088,7.148 c 0.528,0.412 1.212,0.662 2.021,0.664 2.278,0.007 4.593,-1.872 5.168,-4.182 z"
     id="path1352"
     inkscape:connector-curvature="0"
     style="fill:#ffffff;stroke-width:1.43143" /><path
     d="m 128.54,388.67 c -0.393,1.487 0.035,2.793 0.992,3.542 l 2.088,-7.148 c -1.445,0.695 -2.665,2.034 -3.08,3.606 z"
     id="path1354"
     inkscape:connector-curvature="0"
     style="fill:#ffffff;stroke-width:1.43143" /><path
     d="m 455.36,397.03 c -0.761,-2.36 -3.216,-4.253 -5.492,-4.246 -2.276,0.007 -3.54,1.91 -2.814,4.27 0.729,2.38 3.201,4.318 5.513,4.312 2.312,-0.008 3.56,-1.957 2.793,-4.336 z"
     id="path1356"
     inkscape:connector-curvature="0"
     style="fill:#ffffff;stroke-width:1.43143" /><path
     d="m 401.27,392.92 c -2.277,0.007 -3.709,1.911 -3.193,4.271 0.52,2.381 2.818,4.32 5.131,4.313 2.313,-0.007 3.732,-1.956 3.177,-4.338 -0.552,-2.359 -2.84,-4.251 -5.115,-4.246 z"
     id="path1358"
     inkscape:connector-curvature="0"
     style="fill:#ffffff;stroke-width:1.43143" /><path
     d="m 417.3,405.86 c 0.611,2.456 3.017,4.458 5.365,4.452 0.837,-0.003 1.543,-0.27 2.086,-0.71 l -2.222,-7.603 c -0.686,-0.337 -1.413,-0.548 -2.138,-0.545 -2.311,0.006 -3.699,1.972 -3.091,4.406 z"
     id="path1360"
     inkscape:connector-curvature="0"
     style="fill:#ffffff;stroke-width:1.43143" /><path
     d="m 425.74,405.83 c -0.441,-1.671 -1.712,-3.096 -3.209,-3.836 l 2.222,7.603 c 0.978,-0.798 1.404,-2.186 0.987,-3.767 z"
     id="path1362"
     inkscape:connector-curvature="0"
     style="fill:#ffffff;stroke-width:1.43143" /><path
     d="m 413.02,388.69 c 0.575,2.31 2.891,4.189 5.167,4.183 0.593,-0.002 1.118,-0.136 1.567,-0.368 l -2.25,-7.698 c -0.476,-0.16 -0.965,-0.259 -1.453,-0.259 -2.243,0.006 -3.603,1.853 -3.031,4.142 z"
     id="path1364"
     inkscape:connector-curvature="0"
     style="fill:#ffffff;stroke-width:1.43143" /><path
     d="m 421.2,388.67 c -0.474,-1.79 -1.987,-3.289 -3.696,-3.86 l 2.25,7.698 c 1.272,-0.658 1.897,-2.132 1.446,-3.838 z"
     id="path1366"
     inkscape:connector-curvature="0"
     style="fill:#ffffff;stroke-width:1.43143" /><path
     d="m 74.467,416.36 21.648,0.072 5.403,-17.308 c -1.122,1.329 -2.762,2.241 -4.339,2.236 -2.313,-0.007 -3.56,-1.956 -2.794,-4.335 0.761,-2.36 3.216,-4.253 5.492,-4.246 1.563,0.004 2.63,0.916 2.921,2.241 l 5.037,-16.134 -19.651,-0.065 z"
     id="path1368"
     inkscape:connector-curvature="0"
     style="fill:#000000;fill-opacity:1;stroke-width:1.43143" /><path
     d="m 131.62,385.06 c 0.662,-0.313 1.357,-0.518 2.063,-0.504 2.244,0 3.601,1.849 3.028,4.139 -0.572,2.311 -2.882,4.184 -5.159,4.184 -0.808,-0.011 -1.492,-0.258 -2.03,-0.674 l -2.961,10.174 c 0.853,-0.572 1.828,-0.932 2.782,-0.92 2.311,0 3.701,1.963 3.096,4.41 -0.618,2.444 -3.018,4.451 -5.362,4.44 -1.077,0 -1.94,-0.438 -2.501,-1.133 l -2.153,7.349 31.744,0.101 7.751,-37.556 -28.525,-0.09 z m 11.733,12.115 c 0.549,-2.368 2.837,-4.264 5.114,-4.253 2.277,0.012 3.713,1.908 3.197,4.274 -0.516,2.377 -2.815,4.318 -5.126,4.308 -2.321,0 -3.735,-1.952 -3.185,-4.329 z"
     id="path1370"
     inkscape:connector-curvature="0"
     style="fill:#000000;fill-opacity:1;stroke-width:1.43143" /><path
     d="m 461.56,378.82 -20.201,0.067 11.721,37.545 22.188,-0.068 z m -8.997,22.534 c -2.311,0.012 -4.791,-1.928 -5.52,-4.307 -0.729,-2.355 0.538,-4.261 2.816,-4.261 2.276,-0.012 4.732,1.884 5.496,4.239 0.764,2.378 -0.482,4.329 -2.792,4.329 z"
     id="path1372"
     inkscape:connector-curvature="0"
     style="fill:#000000;fill-opacity:1;stroke-width:1.43143" /><path
     d="m 422.66,410.31 c -2.346,0.011 -4.756,-1.996 -5.363,-4.44 -0.604,-2.447 0.774,-4.41 3.097,-4.41 0.718,0 1.447,0.203 2.131,0.539 l -2.771,-9.489 c -0.448,0.234 -0.976,0.359 -1.569,0.37 -2.277,0 -4.588,-1.873 -5.172,-4.184 -0.561,-2.29 0.797,-4.139 3.04,-4.139 0.482,-0.014 0.976,0.09 1.447,0.245 l -1.706,-5.821 -27.975,0.09 7.751,37.556 31.194,-0.101 -2.019,-6.921 c -0.538,0.436 -1.243,0.705 -2.085,0.705 z m -19.462,-8.805 c -2.311,0.011 -4.611,-1.931 -5.127,-4.308 -0.516,-2.366 0.92,-4.263 3.197,-4.274 2.266,-0.011 4.554,1.885 5.115,4.253 0.551,2.377 -0.875,4.329 -3.185,4.329 z"
     id="path1374"
     inkscape:connector-curvature="0"
     style="fill:#000000;fill-opacity:1;stroke-width:1.43143" /></g><g
   transform="matrix(0.27316764,0,0,0.27316764,78.296008,-44.44134)"
   id="g1428"
   style="stroke-width:1.42275"><polygon
     style="fill:#000000;fill-opacity:1;stroke-width:1.42275"
     id="polygon1378"
     points="73.866,416.78 87.89,378.4 107.53,378.47 108.8,374.38 53.816,374.38 34.143,423.46 93.48,423.46 95.543,416.85 " /><polygon
     style="fill:#000000;fill-opacity:1;stroke-width:1.42275"
     id="polygon1380"
     points="440.4,374.38 441.67,378.47 461.85,378.4 475.88,416.78 453.65,416.85 455.72,423.46 517.48,423.46 497.8,374.38 " /><polygon
     style="fill:#000000;fill-opacity:1;stroke-width:1.42275"
     id="polygon1382"
     points="455.41,423.88 458.71,434.46 518.1,434.46 518.1,423.88 " /><polygon
     style="fill:#000000;fill-opacity:1;stroke-width:1.42275"
     id="polygon1384"
     points="33.521,423.88 33.521,434.46 90.488,434.46 93.79,423.88 " /><polygon
     style="fill:#000000;fill-opacity:1;stroke-width:1.42275"
     id="polygon1386"
     points="426.46,416.94 395.23,417.04 387.3,378.65 415.24,378.56 414.02,374.38 135.18,374.38 133.96,378.55 162.44,378.65 154.51,417.04 122.74,416.94 120.84,423.46 428.36,423.46 " /><polygon
     style="fill:#000000;fill-opacity:1;stroke-width:1.42275"
     id="polygon1388"
     points="428.92,423.88 120.28,423.88 117.19,434.46 432.02,434.46 " /><path
     style="fill:#ffffff;stroke-width:1.42275"
     inkscape:connector-curvature="0"
     id="path1390"
     d="m 108.23,374.8 -1.013,3.245 -19.03,-0.063 -0.591,-0.003 -0.203,0.555 -13.717,37.538 -0.411,1.126 1.199,0.004 20.508,0.068 -1.801,5.771 H 34.766 l 19.335,-48.24 h 54.129 m 1.145,-0.842 H 53.532 l -20.01,49.922 h 60.269 l 2.325,-7.448 -21.648,-0.072 13.717,-37.538 19.651,0.065 z" /><path
     style="fill:#ffffff;stroke-width:1.42275"
     inkscape:connector-curvature="0"
     id="path1392"
     d="m 497.52,374.8 19.334,48.24 h -60.825 l -1.801,-5.769 21.051,-0.07 1.198,-0.004 -0.412,-1.126 -13.717,-37.538 -0.201,-0.555 -0.592,0.003 -19.571,0.065 -1.014,-3.247 h 56.55 m 0.568,-0.84 h -58.262 l 1.539,4.932 20.192,-0.068 13.717,37.538 -22.189,0.074 2.324,7.446 h 62.688 z" /><path
     style="fill:#ffffff;stroke-width:1.42275"
     inkscape:connector-curvature="0"
     id="path1394"
     d="m 413.71,374.8 0.975,3.337 -26.868,0.09 -1.029,0.004 0.209,1.008 7.76,37.556 0.14,0.673 0.688,-0.003 30.563,-0.101 1.658,5.677 h -306.4 l 1.658,-5.679 31.104,0.103 0.688,0.003 0.139,-0.673 7.76,-37.556 0.208,-1.008 -1.029,-0.004 -27.409,-0.092 0.974,-3.335 h 278.21 m 0.631,-0.841 H 134.86 l -1.464,5.015 28.527,0.094 -7.76,37.556 -31.736,-0.105 -2.151,7.363 h 308.64 l -2.152,-7.361 -31.193,0.104 -7.76,-37.556 27.986,-0.092 -1.466,-5.018 z" /><path
     style="fill:#ffffff;stroke-width:1.42275"
     inkscape:connector-curvature="0"
     id="path1396"
     d="m 99.877,392.78 c -2.276,-0.007 -4.731,1.886 -5.492,4.246 -0.766,2.379 0.482,4.328 2.794,4.335 1.577,0.005 3.217,-0.907 4.339,-2.236 l 1.28,-4.104 c -0.291,-1.325 -1.358,-2.237 -2.921,-2.241 z" /><path
     style="fill:#ffffff;stroke-width:1.42275"
     inkscape:connector-curvature="0"
     id="path1398"
     d="m 148.48,392.92 c -2.275,-0.006 -4.563,1.887 -5.114,4.246 -0.556,2.382 0.864,4.331 3.177,4.338 2.312,0.007 4.611,-1.933 5.131,-4.313 0.515,-2.359 -0.917,-4.264 -3.194,-4.271 z" /><path
     style="fill:#ffffff;stroke-width:1.42275"
     inkscape:connector-curvature="0"
     id="path1400"
     d="m 127.08,410.31 c 2.349,0.006 4.754,-1.996 5.365,-4.452 0.608,-2.434 -0.78,-4.399 -3.091,-4.405 -0.962,-0.003 -1.93,0.348 -2.789,0.918 l -1.987,6.8 c 0.567,0.696 1.425,1.134 2.502,1.139 z" /><path
     style="fill:#ffffff;stroke-width:1.42275"
     inkscape:connector-curvature="0"
     id="path1402"
     d="m 124,405.83 c -0.351,1.33 -0.095,2.516 0.572,3.337 l 1.987,-6.8 c -1.203,0.797 -2.182,2.042 -2.559,3.463 z" /><path
     style="fill:#ffffff;stroke-width:1.42275"
     inkscape:connector-curvature="0"
     id="path1404"
     d="m 136.72,388.69 c 0.571,-2.289 -0.789,-4.136 -3.031,-4.143 -0.704,-0.002 -1.408,0.195 -2.07,0.513 l -2.088,7.148 c 0.528,0.412 1.212,0.662 2.021,0.664 2.278,0.007 4.593,-1.872 5.168,-4.182 z" /><path
     style="fill:#ffffff;stroke-width:1.42275"
     inkscape:connector-curvature="0"
     id="path1406"
     d="m 128.54,388.67 c -0.393,1.487 0.035,2.793 0.992,3.542 l 2.088,-7.148 c -1.445,0.695 -2.665,2.034 -3.08,3.606 z" /><path
     style="fill:#ffffff;stroke-width:1.42275"
     inkscape:connector-curvature="0"
     id="path1408"
     d="m 455.36,397.03 c -0.761,-2.36 -3.216,-4.253 -5.492,-4.246 -2.276,0.007 -3.54,1.91 -2.814,4.27 0.729,2.38 3.201,4.318 5.513,4.312 2.312,-0.008 3.56,-1.957 2.793,-4.336 z" /><path
     style="fill:#ffffff;stroke-width:1.42275"
     inkscape:connector-curvature="0"
     id="path1410"
     d="m 401.27,392.92 c -2.277,0.007 -3.709,1.911 -3.193,4.271 0.52,2.381 2.818,4.32 5.131,4.313 2.313,-0.007 3.732,-1.956 3.177,-4.338 -0.552,-2.359 -2.84,-4.251 -5.115,-4.246 z" /><path
     style="fill:#ffffff;stroke-width:1.42275"
     inkscape:connector-curvature="0"
     id="path1412"
     d="m 417.3,405.86 c 0.611,2.456 3.017,4.458 5.365,4.452 0.837,-0.003 1.543,-0.27 2.086,-0.71 l -2.222,-7.603 c -0.686,-0.337 -1.413,-0.548 -2.138,-0.545 -2.311,0.006 -3.699,1.972 -3.091,4.406 z" /><path
     style="fill:#ffffff;stroke-width:1.42275"
     inkscape:connector-curvature="0"
     id="path1414"
     d="m 425.74,405.83 c -0.441,-1.671 -1.712,-3.096 -3.209,-3.836 l 2.222,7.603 c 0.978,-0.798 1.404,-2.186 0.987,-3.767 z" /><path
     style="fill:#ffffff;stroke-width:1.42275"
     inkscape:connector-curvature="0"
     id="path1416"
     d="m 413.02,388.69 c 0.575,2.31 2.891,4.189 5.167,4.183 0.593,-0.002 1.118,-0.136 1.567,-0.368 l -2.25,-7.698 c -0.476,-0.16 -0.965,-0.259 -1.453,-0.259 -2.243,0.006 -3.603,1.853 -3.031,4.142 z" /><path
     style="fill:#ffffff;stroke-width:1.42275"
     inkscape:connector-curvature="0"
     id="path1418"
     d="m 421.2,388.67 c -0.474,-1.79 -1.987,-3.289 -3.696,-3.86 l 2.25,7.698 c 1.272,-0.658 1.897,-2.132 1.446,-3.838 z" /><path
     style="fill:#000000;fill-opacity:1;stroke-width:1.42275"
     inkscape:connector-curvature="0"
     id="path1420"
     d="m 74.467,416.36 21.648,0.072 5.403,-17.308 c -1.122,1.329 -2.762,2.241 -4.339,2.236 -2.313,-0.007 -3.56,-1.956 -2.794,-4.335 0.761,-2.36 3.216,-4.253 5.492,-4.246 1.563,0.004 2.63,0.916 2.921,2.241 l 5.037,-16.134 -19.651,-0.065 z" /><path
     style="fill:#000000;fill-opacity:1;stroke-width:1.42275"
     inkscape:connector-curvature="0"
     id="path1422"
     d="m 131.62,385.06 c 0.662,-0.313 1.357,-0.518 2.063,-0.504 2.244,0 3.601,1.849 3.028,4.139 -0.572,2.311 -2.882,4.184 -5.159,4.184 -0.808,-0.011 -1.492,-0.258 -2.03,-0.674 l -2.961,10.174 c 0.853,-0.572 1.828,-0.932 2.782,-0.92 2.311,0 3.701,1.963 3.096,4.41 -0.618,2.444 -3.018,4.451 -5.362,4.44 -1.077,0 -1.94,-0.438 -2.501,-1.133 l -2.153,7.349 31.744,0.101 7.751,-37.556 -28.525,-0.09 z m 11.733,12.115 c 0.549,-2.368 2.837,-4.264 5.114,-4.253 2.277,0.012 3.713,1.908 3.197,4.274 -0.516,2.377 -2.815,4.318 -5.126,4.308 -2.321,0 -3.735,-1.952 -3.185,-4.329 z" /><path
     style="fill:#000000;fill-opacity:1;stroke-width:1.42275"
     inkscape:connector-curvature="0"
     id="path1424"
     d="m 461.56,378.82 -20.201,0.067 11.721,37.545 22.188,-0.068 z m -8.997,22.534 c -2.311,0.012 -4.791,-1.928 -5.52,-4.307 -0.729,-2.355 0.538,-4.261 2.816,-4.261 2.276,-0.012 4.732,1.884 5.496,4.239 0.764,2.378 -0.482,4.329 -2.792,4.329 z" /><path
     style="fill:#000000;fill-opacity:1;stroke-width:1.42275"
     inkscape:connector-curvature="0"
     id="path1426"
     d="m 422.66,410.31 c -2.346,0.011 -4.756,-1.996 -5.363,-4.44 -0.604,-2.447 0.774,-4.41 3.097,-4.41 0.718,0 1.447,0.203 2.131,0.539 l -2.771,-9.489 c -0.448,0.234 -0.976,0.359 -1.569,0.37 -2.277,0 -4.588,-1.873 -5.172,-4.184 -0.561,-2.29 0.797,-4.139 3.04,-4.139 0.482,-0.014 0.976,0.09 1.447,0.245 l -1.706,-5.821 -27.975,0.09 7.751,37.556 31.194,-0.101 -2.019,-6.921 c -0.538,0.436 -1.243,0.705 -2.085,0.705 z m -19.462,-8.805 c -2.311,0.011 -4.611,-1.931 -5.127,-4.308 -0.516,-2.366 0.92,-4.263 3.197,-4.274 2.266,-0.011 4.554,1.885 5.115,4.253 0.551,2.377 -0.875,4.329 -3.185,4.329 z" /></g><g
   id="g1480"
   transform="matrix(0.23386385,0,0,0.23386385,88.300735,-47.5824)"
   style="stroke-width:1.42275"><polygon
     points="107.53,378.47 108.8,374.38 53.816,374.38 34.143,423.46 93.48,423.46 95.543,416.85 73.866,416.78 87.89,378.4 "
     id="polygon1430"
     style="fill:#000000;fill-opacity:1;stroke-width:1.42275" /><polygon
     points="461.85,378.4 475.88,416.78 453.65,416.85 455.72,423.46 517.48,423.46 497.8,374.38 440.4,374.38 441.67,378.47 "
     id="polygon1432"
     style="fill:#000000;fill-opacity:1;stroke-width:1.42275" /><polygon
     points="518.1,434.46 518.1,423.88 455.41,423.88 458.71,434.46 "
     id="polygon1434"
     style="fill:#000000;fill-opacity:1;stroke-width:1.42275" /><polygon
     points="90.488,434.46 93.79,423.88 33.521,423.88 33.521,434.46 "
     id="polygon1436"
     style="fill:#000000;fill-opacity:1;stroke-width:1.42275" /><polygon
     points="387.3,378.65 415.24,378.56 414.02,374.38 135.18,374.38 133.96,378.55 162.44,378.65 154.51,417.04 122.74,416.94 120.84,423.46 428.36,423.46 426.46,416.94 395.23,417.04 "
     id="polygon1438"
     style="fill:#000000;fill-opacity:1;stroke-width:1.42275" /><polygon
     points="117.19,434.46 432.02,434.46 428.92,423.88 120.28,423.88 "
     id="polygon1440"
     style="fill:#000000;fill-opacity:1;stroke-width:1.42275" /><path
     d="m 108.23,374.8 -1.013,3.245 -19.03,-0.063 -0.591,-0.003 -0.203,0.555 -13.717,37.538 -0.411,1.126 1.199,0.004 20.508,0.068 -1.801,5.771 H 34.766 l 19.335,-48.24 h 54.129 m 1.145,-0.842 H 53.532 l -20.01,49.922 h 60.269 l 2.325,-7.448 -21.648,-0.072 13.717,-37.538 19.651,0.065 z"
     id="path1442"
     inkscape:connector-curvature="0"
     style="fill:#ffffff;stroke-width:1.42275" /><path
     d="m 497.52,374.8 19.334,48.24 h -60.825 l -1.801,-5.769 21.051,-0.07 1.198,-0.004 -0.412,-1.126 -13.717,-37.538 -0.201,-0.555 -0.592,0.003 -19.571,0.065 -1.014,-3.247 h 56.55 m 0.568,-0.84 h -58.262 l 1.539,4.932 20.192,-0.068 13.717,37.538 -22.189,0.074 2.324,7.446 h 62.688 z"
     id="path1444"
     inkscape:connector-curvature="0"
     style="fill:#ffffff;stroke-width:1.42275" /><path
     d="m 413.71,374.8 0.975,3.337 -26.868,0.09 -1.029,0.004 0.209,1.008 7.76,37.556 0.14,0.673 0.688,-0.003 30.563,-0.101 1.658,5.677 h -306.4 l 1.658,-5.679 31.104,0.103 0.688,0.003 0.139,-0.673 7.76,-37.556 0.208,-1.008 -1.029,-0.004 -27.409,-0.092 0.974,-3.335 h 278.21 m 0.631,-0.841 H 134.86 l -1.464,5.015 28.527,0.094 -7.76,37.556 -31.736,-0.105 -2.151,7.363 h 308.64 l -2.152,-7.361 -31.193,0.104 -7.76,-37.556 27.986,-0.092 -1.466,-5.018 z"
     id="path1446"
     inkscape:connector-curvature="0"
     style="fill:#ffffff;stroke-width:1.42275" /><path
     d="m 99.877,392.78 c -2.276,-0.007 -4.731,1.886 -5.492,4.246 -0.766,2.379 0.482,4.328 2.794,4.335 1.577,0.005 3.217,-0.907 4.339,-2.236 l 1.28,-4.104 c -0.291,-1.325 -1.358,-2.237 -2.921,-2.241 z"
     id="path1448"
     inkscape:connector-curvature="0"
     style="fill:#ffffff;stroke-width:1.42275" /><path
     d="m 148.48,392.92 c -2.275,-0.006 -4.563,1.887 -5.114,4.246 -0.556,2.382 0.864,4.331 3.177,4.338 2.312,0.007 4.611,-1.933 5.131,-4.313 0.515,-2.359 -0.917,-4.264 -3.194,-4.271 z"
     id="path1450"
     inkscape:connector-curvature="0"
     style="fill:#ffffff;stroke-width:1.42275" /><path
     d="m 127.08,410.31 c 2.349,0.006 4.754,-1.996 5.365,-4.452 0.608,-2.434 -0.78,-4.399 -3.091,-4.405 -0.962,-0.003 -1.93,0.348 -2.789,0.918 l -1.987,6.8 c 0.567,0.696 1.425,1.134 2.502,1.139 z"
     id="path1452"
     inkscape:connector-curvature="0"
     style="fill:#ffffff;stroke-width:1.42275" /><path
     d="m 124,405.83 c -0.351,1.33 -0.095,2.516 0.572,3.337 l 1.987,-6.8 c -1.203,0.797 -2.182,2.042 -2.559,3.463 z"
     id="path1454"
     inkscape:connector-curvature="0"
     style="fill:#ffffff;stroke-width:1.42275" /><path
     d="m 136.72,388.69 c 0.571,-2.289 -0.789,-4.136 -3.031,-4.143 -0.704,-0.002 -1.408,0.195 -2.07,0.513 l -2.088,7.148 c 0.528,0.412 1.212,0.662 2.021,0.664 2.278,0.007 4.593,-1.872 5.168,-4.182 z"
     id="path1456"
     inkscape:connector-curvature="0"
     style="fill:#ffffff;stroke-width:1.42275" /><path
     d="m 128.54,388.67 c -0.393,1.487 0.035,2.793 0.992,3.542 l 2.088,-7.148 c -1.445,0.695 -2.665,2.034 -3.08,3.606 z"
     id="path1458"
     inkscape:connector-curvature="0"
     style="fill:#ffffff;stroke-width:1.42275" /><path
     d="m 455.36,397.03 c -0.761,-2.36 -3.216,-4.253 -5.492,-4.246 -2.276,0.007 -3.54,1.91 -2.814,4.27 0.729,2.38 3.201,4.318 5.513,4.312 2.312,-0.008 3.56,-1.957 2.793,-4.336 z"
     id="path1460"
     inkscape:connector-curvature="0"
     style="fill:#ffffff;stroke-width:1.42275" /><path
     d="m 401.27,392.92 c -2.277,0.007 -3.709,1.911 -3.193,4.271 0.52,2.381 2.818,4.32 5.131,4.313 2.313,-0.007 3.732,-1.956 3.177,-4.338 -0.552,-2.359 -2.84,-4.251 -5.115,-4.246 z"
     id="path1462"
     inkscape:connector-curvature="0"
     style="fill:#ffffff;stroke-width:1.42275" /><path
     d="m 417.3,405.86 c 0.611,2.456 3.017,4.458 5.365,4.452 0.837,-0.003 1.543,-0.27 2.086,-0.71 l -2.222,-7.603 c -0.686,-0.337 -1.413,-0.548 -2.138,-0.545 -2.311,0.006 -3.699,1.972 -3.091,4.406 z"
     id="path1464"
     inkscape:connector-curvature="0"
     style="fill:#ffffff;stroke-width:1.42275" /><path
     d="m 425.74,405.83 c -0.441,-1.671 -1.712,-3.096 -3.209,-3.836 l 2.222,7.603 c 0.978,-0.798 1.404,-2.186 0.987,-3.767 z"
     id="path1466"
     inkscape:connector-curvature="0"
     style="fill:#ffffff;stroke-width:1.42275" /><path
     d="m 413.02,388.69 c 0.575,2.31 2.891,4.189 5.167,4.183 0.593,-0.002 1.118,-0.136 1.567,-0.368 l -2.25,-7.698 c -0.476,-0.16 -0.965,-0.259 -1.453,-0.259 -2.243,0.006 -3.603,1.853 -3.031,4.142 z"
     id="path1468"
     inkscape:connector-curvature="0"
     style="fill:#ffffff;stroke-width:1.42275" /><path
     d="m 421.2,388.67 c -0.474,-1.79 -1.987,-3.289 -3.696,-3.86 l 2.25,7.698 c 1.272,-0.658 1.897,-2.132 1.446,-3.838 z"
     id="path1470"
     inkscape:connector-curvature="0"
     style="fill:#ffffff;stroke-width:1.42275" /><path
     d="m 74.467,416.36 21.648,0.072 5.403,-17.308 c -1.122,1.329 -2.762,2.241 -4.339,2.236 -2.313,-0.007 -3.56,-1.956 -2.794,-4.335 0.761,-2.36 3.216,-4.253 5.492,-4.246 1.563,0.004 2.63,0.916 2.921,2.241 l 5.037,-16.134 -19.651,-0.065 z"
     id="path1472"
     inkscape:connector-curvature="0"
     style="fill:#000000;fill-opacity:1;stroke-width:1.42275" /><path
     d="m 131.62,385.06 c 0.662,-0.313 1.357,-0.518 2.063,-0.504 2.244,0 3.601,1.849 3.028,4.139 -0.572,2.311 -2.882,4.184 -5.159,4.184 -0.808,-0.011 -1.492,-0.258 -2.03,-0.674 l -2.961,10.174 c 0.853,-0.572 1.828,-0.932 2.782,-0.92 2.311,0 3.701,1.963 3.096,4.41 -0.618,2.444 -3.018,4.451 -5.362,4.44 -1.077,0 -1.94,-0.438 -2.501,-1.133 l -2.153,7.349 31.744,0.101 7.751,-37.556 -28.525,-0.09 z m 11.733,12.115 c 0.549,-2.368 2.837,-4.264 5.114,-4.253 2.277,0.012 3.713,1.908 3.197,4.274 -0.516,2.377 -2.815,4.318 -5.126,4.308 -2.321,0 -3.735,-1.952 -3.185,-4.329 z"
     id="path1474"
     inkscape:connector-curvature="0"
     style="fill:#000000;fill-opacity:1;stroke-width:1.42275" /><path
     d="m 461.56,378.82 -20.201,0.067 11.721,37.545 22.188,-0.068 z m -8.997,22.534 c -2.311,0.012 -4.791,-1.928 -5.52,-4.307 -0.729,-2.355 0.538,-4.261 2.816,-4.261 2.276,-0.012 4.732,1.884 5.496,4.239 0.764,2.378 -0.482,4.329 -2.792,4.329 z"
     id="path1476"
     inkscape:connector-curvature="0"
     style="fill:#000000;fill-opacity:1;stroke-width:1.42275" /><path
     d="m 422.66,410.31 c -2.346,0.011 -4.756,-1.996 -5.363,-4.44 -0.604,-2.447 0.774,-4.41 3.097,-4.41 0.718,0 1.447,0.203 2.131,0.539 l -2.771,-9.489 c -0.448,0.234 -0.976,0.359 -1.569,0.37 -2.277,0 -4.588,-1.873 -5.172,-4.184 -0.561,-2.29 0.797,-4.139 3.04,-4.139 0.482,-0.014 0.976,0.09 1.447,0.245 l -1.706,-5.821 -27.975,0.09 7.751,37.556 31.194,-0.101 -2.019,-6.921 c -0.538,0.436 -1.243,0.705 -2.085,0.705 z m -19.462,-8.805 c -2.311,0.011 -4.611,-1.931 -5.127,-4.308 -0.516,-2.366 0.92,-4.263 3.197,-4.274 2.266,-0.011 4.554,1.885 5.115,4.253 0.551,2.377 -0.875,4.329 -3.185,4.329 z"
     id="path1478"
     inkscape:connector-curvature="0"
     style="fill:#000000;fill-opacity:1;stroke-width:1.42275" /></g><polygon
   style="fill:#000000;fill-opacity:1;stroke-width:1.42275"
   id="polygon1482"
   points="34.143,423.46 93.48,423.46 95.543,416.85 73.866,416.78 87.89,378.4 107.53,378.47 108.8,374.38 53.816,374.38 "
   transform="matrix(0.18828865,0,0,0.18718077,99.126359,-45.202896)" /><path
   style="fill:#000000;fill-opacity:1;stroke-width:0.292392"
   inkscape:connector-curvature="0"
   id="path1528"
   d="m 191.30547,25.304106 -4.10964,0.0139 2.38449,7.794635 4.51386,-0.01412 z"
   sodipodi:nodetypes="ccccc" /><polygon
   style="fill:#000000;fill-opacity:1;stroke-width:1.42275"
   id="polygon1484"
   points="517.48,423.46 497.8,374.38 440.4,374.38 441.67,378.47 461.85,378.4 475.88,416.78 453.65,416.85 455.72,423.46 "
   transform="matrix(0.18828865,0,0,0.18718077,103.82703,-45.202896)" /><polygon
   style="fill:#000000;fill-opacity:1;stroke-width:1.42275"
   id="polygon1486"
   points="518.1,434.46 518.1,423.88 455.41,423.88 458.71,434.46 "
   transform="matrix(0.18828865,0,0,0.18718077,103.71029,-45.281512)" /><polygon
   style="fill:#000000;fill-opacity:1;stroke-width:1.42275"
   id="polygon1488"
   points="33.521,434.46 90.488,434.46 93.79,423.88 33.521,423.88 "
   transform="matrix(0.18828865,0,0,0.18718077,99.126359,-45.202896)" /><polygon
   style="fill:#000000;fill-opacity:1;stroke-width:1.42275"
   id="polygon1490"
   points="395.23,417.04 387.3,378.65 415.24,378.56 414.02,374.38 135.18,374.38 133.96,378.55 162.44,378.65 154.51,417.04 122.74,416.94 120.84,423.46 428.36,423.46 426.46,416.94 "
   transform="matrix(0.18828865,0,0,0.18718077,99.126359,-45.202896)" /><polygon
   style="fill:#000000;fill-opacity:1;stroke-width:1.42275"
   id="polygon1492"
   points="120.28,423.88 117.19,434.46 432.02,434.46 428.92,423.88 "
   transform="matrix(0.18828865,0,0,0.18718077,99.126359,-45.202896)" /><path
   style="fill:#ffffff;stroke-width:0.267098"
   inkscape:connector-curvature="0"
   id="path1494"
   d="m 119.50484,24.952457 -0.19073,0.607401 -3.58314,-0.01179 -0.11128,-5.62e-4 -0.0382,0.103886 -2.58275,7.026391 -0.0774,0.210766 0.22576,7.49e-4 3.86142,0.01273 -0.33911,1.08022 h -10.997 l 3.64057,-9.0296 h 10.19187 m 0.21559,-0.157606 h -10.5146 l -3.76766,9.344438 h 11.34797 l 0.43777,-1.394122 -4.07607,-0.01348 2.58276,-7.026392 3.70006,0.01217 z" /><path
   style="fill:#ffffff;stroke-width:0.267098"
   inkscape:connector-curvature="0"
   id="path1496"
   d="m 192.80373,24.952457 3.64037,9.0296 h -11.45265 l -0.33911,-1.079846 3.96366,-0.0131 0.22557,-7.48e-4 -0.0776,-0.210766 -2.58276,-7.026392 -0.0378,-0.103885 -0.11147,5.62e-4 -3.685,0.01217 -0.19092,-0.607776 h 10.64772 m 0.10695,-0.157231 h -10.97008 l 0.28978,0.923175 3.80193,-0.01273 2.58275,7.026392 -4.17794,0.01385 0.43759,1.393748 h 11.80344 z" /><path
   style="fill:#ffffff;stroke-width:0.267098"
   inkscape:connector-curvature="0"
   id="path1498"
   d="m 177.02326,24.952457 0.18358,0.624622 -5.05894,0.01685 -0.19375,7.49e-4 0.0394,0.188678 1.46112,7.029761 0.0264,0.125973 0.12955,-5.62e-4 5.75466,-0.01891 0.31219,1.062625 h -57.69165 l 0.31219,-1.062999 5.85653,0.01928 0.12954,5.62e-4 0.0262,-0.125973 1.46112,-7.029761 0.0392,-0.188678 -0.19374,-7.49e-4 -5.16081,-0.01722 0.18339,-0.624247 h 52.38379 m 0.11881,-0.157419 h -52.62291 l -0.27566,0.938711 5.37131,0.0176 -1.46112,7.029761 -5.97552,-0.01965 -0.40501,1.378212 h 58.11341 l -0.4052,-1.377837 -5.87329,0.01947 -1.46112,-7.029761 5.26945,-0.01722 -0.27603,-0.939273 z" /><path
   style="fill:#ffffff;stroke-width:0.267098"
   inkscape:connector-curvature="0"
   id="path1500"
   d="m 117.93207,28.317967 c -0.42855,-0.0013 -0.8908,0.353023 -1.03408,0.794769 -0.14423,0.445303 0.0907,0.810119 0.52607,0.811429 0.29693,9.36e-4 0.60573,-0.169773 0.81699,-0.418536 l 0.24101,-0.76819 c -0.0548,-0.248015 -0.2557,-0.418723 -0.54999,-0.419472 z" /><path
   style="fill:#ffffff;stroke-width:0.267098"
   inkscape:connector-curvature="0"
   id="path1502"
   d="m 127.08346,28.344172 c -0.42836,-0.0011 -0.85916,0.35321 -0.96291,0.79477 -0.10469,0.445864 0.16268,0.81068 0.59819,0.81199 0.43533,0.0013 0.8682,-0.361821 0.96611,-0.807311 0.097,-0.441559 -0.17266,-0.798139 -0.60139,-0.799449 z" /><path
   style="fill:#ffffff;stroke-width:0.267098"
   inkscape:connector-curvature="0"
   id="path1504"
   d="m 123.05408,31.599246 c 0.44229,0.0011 0.89513,-0.373613 1.01017,-0.833329 0.11448,-0.455598 -0.14686,-0.823408 -0.582,-0.824531 -0.18113,-5.62e-4 -0.3634,0.06514 -0.52514,0.171832 l -0.37413,1.272829 c 0.10676,0.130278 0.26832,0.212263 0.4711,0.213199 z" /><path
   style="fill:#ffffff;stroke-width:0.267098"
   inkscape:connector-curvature="0"
   id="path1506"
   d="m 122.47415,30.760676 c -0.0661,0.24895 -0.0179,0.470947 0.1077,0.624622 l 0.37413,-1.272829 c -0.22651,0.149183 -0.41084,0.382223 -0.48183,0.648207 z" /><path
   style="fill:#ffffff;stroke-width:0.267098"
   inkscape:connector-curvature="0"
   id="path1508"
   d="m 124.86919,27.552397 c 0.10751,-0.428456 -0.14856,-0.774179 -0.57071,-0.775489 -0.13255,-3.75e-4 -0.26511,0.0365 -0.38976,0.09602 l -0.39314,1.337968 c 0.0994,0.07712 0.2282,0.123914 0.38053,0.124288 0.42892,0.0013 0.86481,-0.350402 0.97308,-0.78279 z" /><path
   style="fill:#ffffff;stroke-width:0.267098"
   inkscape:connector-curvature="0"
   id="path1510"
   d="m 123.32898,27.548654 c -0.074,0.278338 0.007,0.522796 0.18679,0.662994 l 0.39314,-1.337968 c -0.27207,0.130091 -0.50179,0.380726 -0.57993,0.674974 z" /><path
   style="fill:#ffffff;stroke-width:0.267098"
   inkscape:connector-curvature="0"
   id="path1512"
   d="m 190.71212,29.373336 c -0.14329,-0.441747 -0.60554,-0.79608 -1.03408,-0.794769 -0.42855,0.0013 -0.66654,0.357515 -0.52984,0.799261 0.13726,0.445491 0.60271,0.808247 1.03803,0.807124 0.43532,-0.0015 0.67031,-0.366313 0.52589,-0.811616 z" /><path
   style="fill:#ffffff;stroke-width:0.267098"
   inkscape:connector-curvature="0"
   id="path1514"
   d="m 174.68095,28.344172 c -0.42874,0.0013 -0.69837,0.357703 -0.60121,0.799449 0.0979,0.445678 0.5306,0.808621 0.96611,0.807311 0.43551,-0.0013 0.70269,-0.366126 0.59819,-0.81199 -0.10393,-0.44156 -0.53474,-0.795706 -0.96309,-0.79477 z" /><path
   style="fill:#ffffff;stroke-width:0.267098"
   inkscape:connector-curvature="0"
   id="path1516"
   d="m 177.69921,30.766291 c 0.11505,0.459716 0.56807,0.834452 1.01017,0.833329 0.1576,-5.61e-4 0.29053,-0.05054 0.39277,-0.132898 l -0.41837,-1.423136 c -0.12917,-0.06308 -0.26606,-0.102575 -0.40257,-0.102013 -0.43513,0.0011 -0.69647,0.36912 -0.582,0.824718 z" /><path
   style="fill:#ffffff;stroke-width:0.267098"
   inkscape:connector-curvature="0"
   id="path1518"
   d="m 179.28837,30.760676 c -0.083,-0.312779 -0.32235,-0.579512 -0.60422,-0.718026 l 0.41838,1.423136 c 0.18415,-0.14937 0.26436,-0.409177 0.18584,-0.70511 z" /><path
   style="fill:#ffffff;stroke-width:0.267098"
   inkscape:connector-curvature="0"
   id="path1520"
   d="m 176.89334,27.552397 c 0.10827,0.432388 0.54434,0.784101 0.97289,0.782978 0.11165,-3.75e-4 0.2105,-0.02546 0.29504,-0.06888 l -0.42364,-1.440917 c -0.0896,-0.02995 -0.1817,-0.04848 -0.27359,-0.04848 -0.42233,0.0011 -0.6784,0.346846 -0.5707,0.775302 z" /><path
   style="fill:#ffffff;stroke-width:0.267098"
   inkscape:connector-curvature="0"
   id="path1522"
   d="m 178.43354,27.548654 c -0.0892,-0.335054 -0.37413,-0.615638 -0.69591,-0.722518 l 0.42364,1.440918 c 0.23951,-0.123165 0.35719,-0.39907 0.27227,-0.7184 z" /><path
   style="fill:#000000;fill-opacity:1;stroke-width:0.267098"
   inkscape:connector-curvature="0"
   id="path1524"
   d="m 113.14765,32.731689 4.07607,0.01348 1.01733,-3.239724 c -0.21126,0.248763 -0.52006,0.419472 -0.81699,0.418536 -0.43551,-0.0013 -0.6703,-0.366126 -0.52607,-0.811429 0.14328,-0.441746 0.60553,-0.79608 1.03408,-0.794769 0.29429,7.48e-4 0.4952,0.171457 0.54999,0.419472 l 0.94841,-3.019975 -3.70006,-0.01217 z" /><path
   style="fill:#000000;fill-opacity:1;stroke-width:0.267098"
   inkscape:connector-curvature="0"
   id="path1526"
   d="m 123.90891,26.872931 c 0.12465,-0.05859 0.25551,-0.09696 0.38844,-0.09434 0.42252,0 0.67803,0.346097 0.57014,0.774741 -0.1077,0.432575 -0.54265,0.783165 -0.97138,0.783165 -0.15214,-0.0021 -0.28093,-0.04829 -0.38223,-0.12616 l -0.55752,1.904377 c 0.16061,-0.107067 0.34419,-0.174452 0.52382,-0.172206 0.43513,0 0.69686,0.367436 0.58294,0.825467 -0.11636,0.45747 -0.56825,0.833142 -1.0096,0.831083 -0.20279,0 -0.36528,-0.08199 -0.47091,-0.212076 l -0.40539,1.375591 5.97704,0.0189 1.45942,-7.029761 -5.37093,-0.01685 z m 2.20919,2.267695 c 0.10337,-0.443244 0.53418,-0.798138 0.96291,-0.796079 0.42874,0.0022 0.69912,0.35714 0.60196,0.80001 -0.0972,0.444929 -0.53003,0.808247 -0.96517,0.806375 -0.43701,0 -0.70325,-0.365377 -0.5997,-0.810306 z" /><path
   style="fill:#000000;fill-opacity:1;stroke-width:0.267098"
   inkscape:connector-curvature="0"
   id="path1530"
   d="m 178.70844,31.599246 c -0.44172,0.0021 -0.8955,-0.373613 -1.00979,-0.831083 -0.11373,-0.458031 0.14574,-0.825467 0.58313,-0.825467 0.13519,0 0.27245,0.038 0.40124,0.10089 l -0.52175,-1.776158 c -0.0844,0.0438 -0.18376,0.0672 -0.29542,0.06926 -0.42873,0 -0.86387,-0.35059 -0.97383,-0.783164 -0.10563,-0.428644 0.15007,-0.774742 0.5724,-0.774742 0.0908,-0.0026 0.18377,0.01685 0.27245,0.04586 l -0.32122,-1.08958 -5.26737,0.01685 1.45942,7.029761 5.87348,-0.01891 -0.38016,-1.295478 c -0.1013,0.08161 -0.23404,0.131963 -0.39258,0.131963 z m -3.66447,-1.648127 c -0.43514,0.0021 -0.8682,-0.361446 -0.96536,-0.806375 -0.0971,-0.442869 0.17323,-0.797951 0.60196,-0.80001 0.42666,-0.0021 0.85747,0.352835 0.9631,0.79608 0.10374,0.444928 -0.16476,0.810305 -0.5997,0.810305 z" /><g
   id="g1609"
   transform="matrix(0.59907639,0,0,0.58053385,-10.082496,-3.8425608)"
   style="stroke-width:1.42275"><polygon
     points="53.816,374.38 34.143,423.46 93.48,423.46 95.543,416.85 73.866,416.78 87.89,378.4 107.53,378.47 108.8,374.38 "
     id="polygon1559"
     style="fill:#000000;fill-opacity:1;stroke-width:1.42275" /><polygon
     points="453.65,416.85 455.72,423.46 517.48,423.46 497.8,374.38 440.4,374.38 441.67,378.47 461.85,378.4 475.88,416.78 "
     id="polygon1561"
     style="fill:#000000;fill-opacity:1;stroke-width:1.42275" /><polygon
     points="455.41,423.88 458.71,434.46 518.1,434.46 518.1,423.88 "
     id="polygon1563"
     style="fill:#000000;fill-opacity:1;stroke-width:1.42275" /><polygon
     points="33.521,423.88 33.521,434.46 90.488,434.46 93.79,423.88 "
     id="polygon1565"
     style="fill:#000000;fill-opacity:1;stroke-width:1.42275" /><polygon
     points="426.46,416.94 395.23,417.04 387.3,378.65 415.24,378.56 414.02,374.38 135.18,374.38 133.96,378.55 162.44,378.65 154.51,417.04 122.74,416.94 120.84,423.46 428.36,423.46 "
     id="polygon1567"
     style="fill:#000000;fill-opacity:1;stroke-width:1.42275" /><polygon
     points="428.92,423.88 120.28,423.88 117.19,434.46 432.02,434.46 "
     id="polygon1569"
     style="fill:#000000;fill-opacity:1;stroke-width:1.42275" /><path
     d="m 108.23,374.8 -1.013,3.245 -19.03,-0.063 -0.591,-0.003 -0.203,0.555 -13.717,37.538 -0.411,1.126 1.199,0.004 20.508,0.068 -1.801,5.771 H 34.766 l 19.335,-48.24 h 54.129 m 1.145,-0.842 H 53.532 l -20.01,49.922 h 60.269 l 2.325,-7.448 -21.648,-0.072 13.717,-37.538 19.651,0.065 z"
     id="path1571"
     inkscape:connector-curvature="0"
     style="fill:#ffffff;stroke-width:1.42275" /><path
     d="m 497.52,374.8 19.334,48.24 h -60.825 l -1.801,-5.769 21.051,-0.07 1.198,-0.004 -0.412,-1.126 -13.717,-37.538 -0.201,-0.555 -0.592,0.003 -19.571,0.065 -1.014,-3.247 h 56.55 m 0.568,-0.84 h -58.262 l 1.539,4.932 20.192,-0.068 13.717,37.538 -22.189,0.074 2.324,7.446 h 62.688 z"
     id="path1573"
     inkscape:connector-curvature="0"
     style="fill:#ffffff;stroke-width:1.42275" /><path
     d="m 413.71,374.8 0.975,3.337 -26.868,0.09 -1.029,0.004 0.209,1.008 7.76,37.556 0.14,0.673 0.688,-0.003 30.563,-0.101 1.658,5.677 h -306.4 l 1.658,-5.679 31.104,0.103 0.688,0.003 0.139,-0.673 7.76,-37.556 0.208,-1.008 -1.029,-0.004 -27.409,-0.092 0.974,-3.335 h 278.21 m 0.631,-0.841 H 134.86 l -1.464,5.015 28.527,0.094 -7.76,37.556 -31.736,-0.105 -2.151,7.363 h 308.64 l -2.152,-7.361 -31.193,0.104 -7.76,-37.556 27.986,-0.092 -1.466,-5.018 z"
     id="path1575"
     inkscape:connector-curvature="0"
     style="fill:#ffffff;stroke-width:1.42275" /><path
     d="m 99.877,392.78 c -2.276,-0.007 -4.731,1.886 -5.492,4.246 -0.766,2.379 0.482,4.328 2.794,4.335 1.577,0.005 3.217,-0.907 4.339,-2.236 l 1.28,-4.104 c -0.291,-1.325 -1.358,-2.237 -2.921,-2.241 z"
     id="path1577"
     inkscape:connector-curvature="0"
     style="fill:#ffffff;stroke-width:1.42275" /><path
     d="m 148.48,392.92 c -2.275,-0.006 -4.563,1.887 -5.114,4.246 -0.556,2.382 0.864,4.331 3.177,4.338 2.312,0.007 4.611,-1.933 5.131,-4.313 0.515,-2.359 -0.917,-4.264 -3.194,-4.271 z"
     id="path1579"
     inkscape:connector-curvature="0"
     style="fill:#ffffff;stroke-width:1.42275" /><path
     d="m 127.08,410.31 c 2.349,0.006 4.754,-1.996 5.365,-4.452 0.608,-2.434 -0.78,-4.399 -3.091,-4.405 -0.962,-0.003 -1.93,0.348 -2.789,0.918 l -1.987,6.8 c 0.567,0.696 1.425,1.134 2.502,1.139 z"
     id="path1581"
     inkscape:connector-curvature="0"
     style="fill:#ffffff;stroke-width:1.42275" /><path
     d="m 124,405.83 c -0.351,1.33 -0.095,2.516 0.572,3.337 l 1.987,-6.8 c -1.203,0.797 -2.182,2.042 -2.559,3.463 z"
     id="path1583"
     inkscape:connector-curvature="0"
     style="fill:#ffffff;stroke-width:1.42275" /><path
     d="m 136.72,388.69 c 0.571,-2.289 -0.789,-4.136 -3.031,-4.143 -0.704,-0.002 -1.408,0.195 -2.07,0.513 l -2.088,7.148 c 0.528,0.412 1.212,0.662 2.021,0.664 2.278,0.007 4.593,-1.872 5.168,-4.182 z"
     id="path1585"
     inkscape:connector-curvature="0"
     style="fill:#ffffff;stroke-width:1.42275" /><path
     d="m 128.54,388.67 c -0.393,1.487 0.035,2.793 0.992,3.542 l 2.088,-7.148 c -1.445,0.695 -2.665,2.034 -3.08,3.606 z"
     id="path1587"
     inkscape:connector-curvature="0"
     style="fill:#ffffff;stroke-width:1.42275" /><path
     d="m 455.36,397.03 c -0.761,-2.36 -3.216,-4.253 -5.492,-4.246 -2.276,0.007 -3.54,1.91 -2.814,4.27 0.729,2.38 3.201,4.318 5.513,4.312 2.312,-0.008 3.56,-1.957 2.793,-4.336 z"
     id="path1589"
     inkscape:connector-curvature="0"
     style="fill:#ffffff;stroke-width:1.42275" /><path
     d="m 401.27,392.92 c -2.277,0.007 -3.709,1.911 -3.193,4.271 0.52,2.381 2.818,4.32 5.131,4.313 2.313,-0.007 3.732,-1.956 3.177,-4.338 -0.552,-2.359 -2.84,-4.251 -5.115,-4.246 z"
     id="path1591"
     inkscape:connector-curvature="0"
     style="fill:#ffffff;stroke-width:1.42275" /><path
     d="m 417.3,405.86 c 0.611,2.456 3.017,4.458 5.365,4.452 0.837,-0.003 1.543,-0.27 2.086,-0.71 l -2.222,-7.603 c -0.686,-0.337 -1.413,-0.548 -2.138,-0.545 -2.311,0.006 -3.699,1.972 -3.091,4.406 z"
     id="path1593"
     inkscape:connector-curvature="0"
     style="fill:#ffffff;stroke-width:1.42275" /><path
     d="m 425.74,405.83 c -0.441,-1.671 -1.712,-3.096 -3.209,-3.836 l 2.222,7.603 c 0.978,-0.798 1.404,-2.186 0.987,-3.767 z"
     id="path1595"
     inkscape:connector-curvature="0"
     style="fill:#ffffff;stroke-width:1.42275" /><path
     d="m 413.02,388.69 c 0.575,2.31 2.891,4.189 5.167,4.183 0.593,-0.002 1.118,-0.136 1.567,-0.368 l -2.25,-7.698 c -0.476,-0.16 -0.965,-0.259 -1.453,-0.259 -2.243,0.006 -3.603,1.853 -3.031,4.142 z"
     id="path1597"
     inkscape:connector-curvature="0"
     style="fill:#ffffff;stroke-width:1.42275" /><path
     d="m 421.2,388.67 c -0.474,-1.79 -1.987,-3.289 -3.696,-3.86 l 2.25,7.698 c 1.272,-0.658 1.897,-2.132 1.446,-3.838 z"
     id="path1599"
     inkscape:connector-curvature="0"
     style="fill:#ffffff;stroke-width:1.42275" /><path
     d="m 74.467,416.36 21.648,0.072 5.403,-17.308 c -1.122,1.329 -2.762,2.241 -4.339,2.236 -2.313,-0.007 -3.56,-1.956 -2.794,-4.335 0.761,-2.36 3.216,-4.253 5.492,-4.246 1.563,0.004 2.63,0.916 2.921,2.241 l 5.037,-16.134 -19.651,-0.065 z"
     id="path1601"
     inkscape:connector-curvature="0"
     style="fill:#000000;fill-opacity:1;stroke-width:1.42275" /><path
     d="m 131.62,385.06 c 0.662,-0.313 1.357,-0.518 2.063,-0.504 2.244,0 3.601,1.849 3.028,4.139 -0.572,2.311 -2.882,4.184 -5.159,4.184 -0.808,-0.011 -1.492,-0.258 -2.03,-0.674 l -2.961,10.174 c 0.853,-0.572 1.828,-0.932 2.782,-0.92 2.311,0 3.701,1.963 3.096,4.41 -0.618,2.444 -3.018,4.451 -5.362,4.44 -1.077,0 -1.94,-0.438 -2.501,-1.133 l -2.153,7.349 31.744,0.101 7.751,-37.556 -28.525,-0.09 z m 11.733,12.115 c 0.549,-2.368 2.837,-4.264 5.114,-4.253 2.277,0.012 3.713,1.908 3.197,4.274 -0.516,2.377 -2.815,4.318 -5.126,4.308 -2.321,0 -3.735,-1.952 -3.185,-4.329 z"
     id="path1603"
     inkscape:connector-curvature="0"
     style="fill:#000000;fill-opacity:1;stroke-width:1.42275" /><path
     d="m 461.56,378.82 -20.201,0.067 11.721,37.545 22.188,-0.068 z m -8.997,22.534 c -2.311,0.012 -4.791,-1.928 -5.52,-4.307 -0.729,-2.355 0.538,-4.261 2.816,-4.261 2.276,-0.012 4.732,1.884 5.496,4.239 0.764,2.378 -0.482,4.329 -2.792,4.329 z"
     id="path1605"
     inkscape:connector-curvature="0"
     style="fill:#000000;fill-opacity:1;stroke-width:1.42275" /><path
     d="m 422.66,410.31 c -2.346,0.011 -4.756,-1.996 -5.363,-4.44 -0.604,-2.447 0.774,-4.41 3.097,-4.41 0.718,0 1.447,0.203 2.131,0.539 l -2.771,-9.489 c -0.448,0.234 -0.976,0.359 -1.569,0.37 -2.277,0 -4.588,-1.873 -5.172,-4.184 -0.561,-2.29 0.797,-4.139 3.04,-4.139 0.482,-0.014 0.976,0.09 1.447,0.245 l -1.706,-5.821 -27.975,0.09 7.751,37.556 31.194,-0.101 -2.019,-6.921 c -0.538,0.436 -1.243,0.705 -2.085,0.705 z m -19.462,-8.805 c -2.311,0.011 -4.611,-1.931 -5.127,-4.308 -0.516,-2.366 0.92,-4.263 3.197,-4.274 2.266,-0.011 4.554,1.885 5.115,4.253 0.551,2.377 -0.875,4.329 -3.185,4.329 z"
     id="path1607"
     inkscape:connector-curvature="0"
     style="fill:#000000;fill-opacity:1;stroke-width:1.42275" /></g>

<g transform="translate(10, 281.60925)">  <path
     id="path833"
     style="font-size:11px;fill:#bbbbbb"
     d="m 47.099139,1 c 0,2.785807 0,5.571615 0,8.357422 0.336589,0 0.673177,0 1.009766,0 0,-1.492839 0,-2.985677 0,-4.478516 0.734878,-0.63751 2.306024,-1.222982 2.848262,-0.08188 0.278327,0.918406 0.103034,1.896215 0.147834,2.844253 0,0.572046 0,1.144093 0,1.716139 0.336588,0 0.673177,0 1.009765,0 -0.04032,-1.586492 0.0905,-3.185124 -0.08604,-4.763334 -0.263861,-1.225268 -1.77799,-1.757192 -2.837556,-1.214394 -0.475175,0.186034 -1.286643,0.921151 -1.082273,-0.0062 0,-0.791155 0,-1.582311 0,-2.373467 -0.336584,0 -0.673195,0 -1.009763,0 z m 40.878907,0 c 0,0.866536 0,1.733073 0,2.599609 -1.267117,-0.782933 -3.219192,-0.430669 -3.852886,1.006676 -0.667723,1.336008 -0.576271,3.099777 0.360774,4.283954 0.906871,0.930935 2.547941,0.783098 3.411106,-0.125578 -0.0059,0.516749 0.258965,0.694173 0.780978,0.592761 0.450356,0.147098 0.283244,-0.323271 0.309793,-0.59998 0,-2.585814 0,-5.171628 0,-7.757442 -0.336588,0 -0.673177,0 -1.009765,0 z M 4.0815615,1.214844 c -1.270503,-0.05781 -2.818921,0.649361 -2.9887349,2.043628 -0.20654812,1.167321 0.7564776,2.214186 1.8700399,2.39622 0.9546903,0.250777 2.038458,0.16718 2.864789,0.786714 0.807458,0.95514 -0.335077,2.248639 -1.416056,2.125769 C 3.2121188,8.678893 2.013116,8.238225 1.0569583,7.53125 0.94800728,8.29909 0.89371398,9.151735 1.8828985,9.184181 3.3532105,9.640226 5.1525995,9.730388 6.4263825,8.736633 7.4106285,7.904292 7.5336745,6.057789 6.3005025,5.390254 5.1351145,4.660262 3.590645,4.994686 2.4640453,4.203468 1.7046717,3.369423 2.5975009,2.109131 3.6176791,2.16804 4.7554905,2.011058 5.9155785,2.388767 6.8503055,3.029297 6.9592325,2.289211 6.9928105,1.477595 6.0293245,1.476937 5.3965525,1.299278 4.7388495,1.210035 4.0815615,1.214844 Z m 22.2089845,0 c -1.709272,-0.09554 -3.479224,1.088445 -3.763434,2.832548 -0.432259,1.759773 -0.06573,4.017426 1.646895,4.966793 1.358741,0.736758 3.05146,0.590083 4.416527,-0.05214 0.680945,0.03217 0.625243,-2.018154 -0.120991,-1.103607 C 27.741644,8.497325 26.686445,8.667797 25.744949,8.543296 24.617107,8.4195 23.779515,7.455695 23.583414,6.374468 23.286579,5.047039 23.521074,3.377321 24.704374,2.545893 25.971075,1.760872 27.664504,2.126257 28.755674,3.052942 29.266855,3.256272 28.968358,2.14447 28.92255,1.881594 28.111496,1.465748 27.205928,1.210082 26.290546,1.214841 Z m 41.792968,0 c -1.270503,-0.05781 -2.818921,0.649361 -2.988735,2.043628 -0.206221,1.166571 0.755412,2.214135 1.868737,2.396148 0.955154,0.250725 2.038998,0.167842 2.866092,0.786786 0.803825,0.9559 -0.334598,2.248888 -1.416223,2.12578 C 67.213312,8.678851 66.014146,8.237569 65.056958,7.53125 64.952671,8.299464 64.89433,9.151633 65.884846,9.184181 67.355158,9.640226 69.154547,9.730388 70.428331,8.736633 71.412576,7.904292 71.535622,6.057789 70.30245,5.390254 69.137062,4.660262 67.592592,4.994686 66.465992,4.203468 65.706619,3.369423 66.599448,2.109131 67.619626,2.16804 68.757438,2.011058 69.917526,2.388767 70.852253,3.029297 70.96118,2.289211 70.994758,1.477595 70.031272,1.476936 69.398503,1.299278 68.7408,1.210035 68.083514,1.214844 Z m 22.837891,0.0918 c 0,0.348958 0,0.697917 0,1.046875 0.379558,0 0.759117,0 1.138675,0 0,-0.348959 0,-0.697919 0,-1.046878 -0.379558,1e-6 -0.759117,2e-6 -1.138675,3e-6 z M 37.054218,1.632815 c 0,0.57487 0,1.14974 0,1.72461 -0.890141,-0.460911 -0.977874,1.226957 -0.08956,0.84039 0.209458,0.59319 0.04113,1.317016 0.08689,1.961159 0.03983,0.871543 -0.128025,1.830592 0.318555,2.618498 0.605933,0.794843 1.91704,0.937254 2.724374,0.436826 C 40.553672,8.20257 39.57449,8.470474 38.987776,8.641231 38.033387,8.527186 38.001433,7.440683 38.063991,6.691421 c 0,-0.828133 0,-1.656266 0,-2.484399 0.694662,0 1.389323,0 2.083985,0 0.127125,-0.550494 -0.03471,-1.01834 -0.649972,-0.849609 -0.478004,0 -0.956009,0 -1.434014,0 0,-0.57487 0,-1.14974 0,-1.72461 -0.336592,5e-6 -0.673188,2e-6 -1.009778,1.2e-5 z m 35.792968,0 c 0,0.57487 0,1.14974 0,1.72461 -0.890141,-0.460911 -0.977872,1.226958 -0.08956,0.840389 0.209456,0.593191 0.04113,1.317016 0.08689,1.96116 0.03983,0.871543 -0.128025,1.830592 0.318555,2.618498 0.605932,0.794843 1.917039,0.937255 2.724373,0.436826 0.459195,-1.011729 -0.519987,-0.743824 -1.106701,-0.573067 -0.954391,-0.114044 -0.98634,-1.200549 -0.923786,-1.94981 0,-0.828133 0,-1.656266 0,-2.484399 0.694661,0 1.389323,0 2.083984,0 0.127125,-0.550494 -0.03471,-1.01834 -0.649972,-0.849609 -0.478004,0 -0.956009,0 -1.434013,0 0,-0.57487 0,-1.14974 0,-1.72461 -0.336591,5e-6 -0.673187,2e-6 -1.009776,1.2e-5 z M 18.808124,3.191409 C 18.094905,2.935351 17.239001,4.03514 16.807568,3.745844 16.924933,3.064297 15.42404,3.190079 15.784686,3.907384 c 0,1.81668 0,3.633361 0,5.450041 0.336589,0 0.673177,0 1.009766,0 0,-1.492839 0,-2.985677 0,-4.478516 0.735405,-0.637705 2.305453,-1.222485 2.849218,-0.08209 0.278696,0.901617 0.104456,1.862968 0.148831,2.794465 0,0.588713 0,1.177425 0,1.766138 0.336588,0 0.673177,0 1.009765,0 -0.04399,-1.593518 0.09877,-3.20141 -0.09401,-4.785076 -0.20719,-0.835885 -1.034297,-1.45801 -1.900131,-1.38094 z m 37.74414,0 c -1.521655,-0.106782 -2.870485,1.256511 -2.903391,2.752487 -0.187662,1.362639 0.449907,2.994629 1.887441,3.369754 1.127624,0.363449 2.364488,0.153591 3.426107,-0.321459 0,-0.367188 0,-0.734375 0,-1.101563 C 57.907373,8.60552 56.316536,9.000861 55.260559,8.083505 54.886278,7.776964 54.254723,6.45525 55.061618,6.462891 c 1.339981,0 2.679962,0 4.019943,0 C 59.160221,5.347343 58.934457,3.952653 57.79557,3.440653 57.409264,3.256935 56.977013,3.191152 56.552264,3.191409 Z m 39.789067,0 c -1.43435,-0.105366 -2.683091,1.182808 -2.741489,2.580836 -0.215182,1.416573 0.332234,3.201116 1.850159,3.631665 1.41416,0.476399 3.21103,-0.333712 3.50065,-1.869901 0.430759,-1.474988 0.0677,-3.439789 -1.4614,-4.123733 -0.36119,-0.15464 -0.75631,-0.220409 -1.14792,-0.218867 z m 16.300779,0 c -1.43435,-0.105366 -2.6831,1.182806 -2.74149,2.580836 -0.21518,1.416573 0.33223,3.201117 1.85016,3.631665 1.41416,0.476399 3.21103,-0.333712 3.50065,-1.869901 0.43076,-1.474988 0.0677,-3.439789 -1.4614,-4.123733 -0.36119,-0.15464 -0.75631,-0.220409 -1.14792,-0.218867 z m 7.2832,0 c -0.69559,-0.265373 -1.51917,0.857085 -1.9322,0.554435 0.11735,-0.681549 -1.38352,-0.555761 -1.02288,0.16154 0,1.81668 0,3.633361 0,5.450041 0.33659,0 0.67318,0 1.00977,0 0,-1.492839 0,-2.985677 0,-4.478516 0.69289,-0.640703 2.26346,-1.226266 2.74185,-0.07252 0.2374,0.922549 0.08,1.890099 0.12142,2.834903 0,0.572045 0,1.14409 0,1.716135 0.33659,0 0.67318,0 1.00977,0 -0.0184,-1.484296 0.0406,-2.969838 -0.0373,-4.453125 0.70054,-0.647981 2.28723,-1.268386 2.77851,-0.09505 0.23758,0.921564 0.0806,1.88819 0.12187,2.832036 0,0.572045 0,1.14409 0,1.716135 0.33659,0 0.67317,0 1.00976,0 -0.0368,-1.575996 0.0821,-3.161996 -0.0772,-4.731206 -0.19216,-1.116344 -1.45733,-1.724181 -2.48513,-1.365937 -0.77965,0.178711 -1.55659,1.282397 -2.09702,0.257269 -0.33141,-0.229515 -0.74,-0.337547 -1.14122,-0.326142 z M 32.478046,3.212899 C 31.83872,3.35545 30.468978,3.021271 30.522724,4.017333 c -0.153066,0.951473 1.001736,0.0084 1.530921,0.112201 0.701846,-0.07327 1.710297,-0.05734 1.99654,0.727327 0.174575,1.052501 -1.227212,0.402038 -1.837139,0.694747 -0.996071,0.09102 -2.155836,0.680376 -2.219204,1.801023 -0.147918,1.103215 0.758253,2.235243 1.909329,2.172302 0.780462,0.151097 1.757244,-0.583619 2.18709,-0.693631 -0.342005,0.814461 1.426891,0.762288 0.996486,-0.075 -0.03395,-1.410695 0.09441,-2.837608 -0.08715,-4.237248 C 34.664798,3.459355 33.464183,3.167251 32.478044,3.2129 Z m 11.404296,0.0059 c -1.504029,-0.1101 -2.896586,1.182736 -2.926571,2.687182 -0.176355,1.346973 0.370407,3.009517 1.799543,3.420825 1.006432,0.331935 2.126029,0.140974 3.048904,-0.346288 0,-0.370443 0,-0.740885 0,-1.111328 C 44.92866,8.497487 43.615859,9.003733 42.669548,8.234348 41.817468,7.402856 41.79671,5.973359 42.296661,4.953214 42.859892,3.853682 44.354119,3.932664 45.266704,4.515 45.797582,5.008321 45.862768,4.730534 45.804218,4.189913 46.002944,3.532111 45.205541,3.487446 44.749673,3.325198 44.466104,3.256018 44.1745,3.216812 43.882342,3.218799 Z m 63.195318,0 c -1.50374,-0.109716 -2.89438,1.183882 -2.92622,2.687075 -0.17586,1.346872 0.37216,3.007709 1.79939,3.421001 1.00705,0.332174 2.12691,0.140147 3.05065,-0.346357 0,-0.370443 0,-0.740885 0,-1.111328 -0.85579,0.602843 -2.08812,1.11006 -3.04591,0.433796 -0.97471,-0.825288 -0.99108,-2.4035 -0.39943,-3.455619 0.65696,-1.063404 2.14404,-0.856747 3.04678,-0.254061 0.55917,0.574537 0.36898,-0.179964 0.39856,-0.553388 0.0839,-0.665216 -0.97239,-0.606427 -1.42416,-0.786129 -0.1654,-0.02376 -0.33253,-0.03607 -0.49966,-0.03499 z M 8.7807805,3.357471 c 0.04122,1.588588 -0.09266,3.189826 0.08835,4.769773 0.2882975,1.277783 1.9188885,1.782465 2.9848915,1.142565 0.570565,-0.314218 0.986078,-0.69488 1.039564,0.10363 0.612721,0.09893 1.075923,-0.03721 0.904769,-0.715925 0,-1.766681 0,-3.533362 0,-5.300043 -0.336589,0 -0.673177,0 -1.009766,0 0,1.49349 0,2.986979 0,4.480469 C 12.049818,8.472357 10.472687,9.063989 9.935767,7.91136 9.659305,7.011411 9.836127,6.052926 9.790541,5.123616 c 0,-0.588714 0,-1.177427 0,-1.766141 -0.336588,0 -0.673175,0 -1.0097625,0 z m 51.8320305,0 c 0,2 0,4 0,6 0.336589,0 0.673177,0 1.009766,0 0,-1.419937 0,-2.839875 0,-4.259812 C 62.305908,4.248182 63.623484,4.470105 64.373218,4.285654 64.662142,3.202819 63.474485,3.180188 62.769621,3.532115 62.33026,3.657729 61.329158,4.669937 61.650752,3.548925 61.578242,3.173842 60.901187,3.422475 60.612811,3.357471 Z m 16.503907,0 c 0.04121,1.588688 -0.09266,3.190025 0.08837,4.770072 0.288873,1.277581 1.919942,1.782057 2.986002,1.1425 0.570429,-0.314472 0.984752,-0.694831 1.038441,0.103396 0.612721,0.09893 1.075923,-0.03721 0.904769,-0.715925 0,-1.766681 0,-3.533362 0,-5.300043 -0.336589,0 -0.673177,0 -1.009766,0 0,1.49349 0,2.986979 0,4.480469 -0.737676,0.635545 -2.315168,1.225256 -2.851584,0.0736 -0.275539,-0.900165 -0.09889,-1.858559 -0.144511,-2.787924 0,-0.588714 0,-1.177427 0,-1.766141 -0.337239,0 -0.674478,0 -1.011717,0 z m 13.86914,0 c 0,2 0,4 0,6 0.336587,0 0.673175,0 1.009762,0 0,-2 0,-4 0,-6 -0.336587,0 -0.673175,0 -1.009762,0 z m -34.488281,0.66597 c 0.834454,-0.299054 2.115691,1.166553 1.301584,1.666015 -1.045841,0 -2.091681,0 -3.137522,0 0.03552,-0.931763 0.895214,-1.740889 1.835938,-1.666015 z m 39.843754,0.03711 c 1.27816,-0.08268 1.86571,1.379182 1.72663,2.457497 0.1044,1.157321 -0.86159,2.466524 -2.11858,2.102129 -1.08783,-0.246126 -1.39757,-1.435427 -1.33929,-2.408618 -0.0443,-0.944333 0.47196,-2.10084 1.54394,-2.143186 z m 16.300779,0 c 1.27817,-0.08269 1.86571,1.379181 1.72663,2.457497 0.10438,1.157271 -0.86148,2.466417 -2.11844,2.102171 -1.08845,-0.245686 -1.39611,-1.435626 -1.33748,-2.408502 -0.0438,-0.943654 0.47077,-2.100327 1.54223,-2.143379 z m -26.097658,0.05469 c 0.586064,0.02158 1.671157,0.05379 1.433594,0.922208 0,0.947805 0,1.895609 0,2.843414 C 87.206225,8.596336 85.56361,8.983149 85.022883,7.812673 84.602816,6.825616 84.604605,5.534304 85.26489,4.653333 85.583832,4.295926 86.065339,4.090903 86.544452,4.115238 Z M 34.085468,6.210945 c 0,0.55664 0,1.113281 0,1.669921 -0.771631,0.679272 -2.403138,1.171243 -2.999156,0.05689 -0.341792,-1.047058 0.799111,-1.661463 1.692306,-1.626694 0.434258,-0.04959 0.871322,-0.06576 1.30685,-0.100121 z m 66.841792,1.615234 c 0,0.510417 0,1.020833 0,1.53125 0.42774,0 0.85547,0 1.28321,0 0,-0.510417 0,-1.020833 0,-1.53125 -0.42774,0 -0.85547,0 -1.28321,0 z" />
</g></svg>
